  0
SECTION
  2
BLOCKS
  0
ENDSEC
  0
SECTION
  2
ENTITIES
  0
LINE
  8
0
 10
-19.3837
 20
-3.32898
 11
-19.3078
 21
-3.84055
  0
LINE
  8
0
 10
-19.3078
 20
-3.84055
 11
-19.1821
 21
-4.34223
  0
LINE
  8
0
 10
-19.1821
 20
-4.34223
 11
-19.1821
 21
-4.34228
  0
LINE
  8
0
 10
-19.1821
 20
-4.34228
 11
-19.1511
 21
-4.4019
  0
LINE
  8
0
 10
-19.1511
 20
-4.4019
 11
-19.0683
 21
-4.51043
  0
LINE
  8
0
 10
-19.0683
 20
-4.51043
 11
-18.9699
 21
-4.6018
  0
LINE
  8
0
 10
-18.9699
 20
-4.6018
 11
-18.8588
 21
-4.67451
  0
LINE
  8
0
 10
-18.8588
 20
-4.67451
 11
-18.7375
 21
-4.72713
  0
LINE
  8
0
 10
-18.7375
 20
-4.72713
 11
-18.6089
 21
-4.75816
  0
LINE
  8
0
 10
-18.6089
 20
-4.75816
 11
-18.4757
 21
-4.76614
  0
LINE
  8
0
 10
-18.4757
 20
-4.76614
 11
-18.3405
 21
-4.74959
  0
LINE
  8
0
 10
-18.3405
 20
-4.74959
 11
-17.5261
 21
-4.51531
  0
LINE
  8
0
 10
-17.5261
 20
-4.51531
 11
-17.3016
 21
-4.47721
  0
LINE
  8
0
 10
-17.3016
 20
-4.47721
 11
-17.0775
 21
-4.45954
  0
LINE
  8
0
 10
-17.0775
 20
-4.45954
 11
-16.8548
 21
-4.46169
  0
LINE
  8
0
 10
-16.8548
 20
-4.46169
 11
-16.6346
 21
-4.48313
  0
LINE
  8
0
 10
-16.6346
 20
-4.48313
 11
-16.4179
 21
-4.5233
  0
LINE
  8
0
 10
-16.4179
 20
-4.5233
 11
-16.206
 21
-4.58162
  0
LINE
  8
0
 10
-16.206
 20
-4.58162
 11
-15.9998
 21
-4.65753
  0
LINE
  8
0
 10
-15.9998
 20
-4.65753
 11
-15.8004
 21
-4.7505
  0
LINE
  8
0
 10
-15.8004
 20
-4.7505
 11
-15.6089
 21
-4.85993
  0
LINE
  8
0
 10
-15.6089
 20
-4.85993
 11
-15.4265
 21
-4.98528
  0
LINE
  8
0
 10
-15.4265
 20
-4.98528
 11
-15.2541
 21
-5.12596
  0
LINE
  8
0
 10
-15.2541
 20
-5.12596
 11
-15.0929
 21
-5.28144
  0
LINE
  8
0
 10
-15.0929
 20
-5.28144
 11
-14.9439
 21
-5.45115
  0
LINE
  8
0
 10
-14.9439
 20
-5.45115
 11
-14.8083
 21
-5.63451
  0
LINE
  8
0
 10
-14.8083
 20
-5.63451
 11
-14.6871
 21
-5.83099
  0
LINE
  8
0
 10
-14.6871
 20
-5.83099
 11
-14.5813
 21
-6.03997
  0
LINE
  8
0
 10
-14.5813
 20
-6.03997
 11
-14.5085
 21
-6.26244
  0
LINE
  8
0
 10
-14.5085
 20
-6.26244
 11
-14.4554
 21
-6.487
  0
LINE
  8
0
 10
-14.4554
 20
-6.487
 11
-14.4218
 21
-6.71246
  0
LINE
  8
0
 10
-14.4218
 20
-6.71246
 11
-14.4072
 21
-6.93771
  0
LINE
  8
0
 10
-14.4072
 20
-6.93771
 11
-14.4113
 21
-7.16156
  0
LINE
  8
0
 10
-14.4113
 20
-7.16156
 11
-14.4338
 21
-7.38285
  0
LINE
  8
0
 10
-14.4338
 20
-7.38285
 11
-14.4742
 21
-7.60044
  0
LINE
  8
0
 10
-14.4742
 20
-7.60044
 11
-14.5322
 21
-7.81314
  0
LINE
  8
0
 10
-14.5322
 20
-7.81314
 11
-14.6075
 21
-8.0198
  0
LINE
  8
0
 10
-14.6075
 20
-8.0198
 11
-14.6996
 21
-8.21928
  0
LINE
  8
0
 10
-14.6996
 20
-8.21928
 11
-14.8082
 21
-8.41038
  0
LINE
  8
0
 10
-14.8082
 20
-8.41038
 11
-14.9329
 21
-8.59198
  0
LINE
  8
0
 10
-14.9329
 20
-8.59198
 11
-15.0734
 21
-8.76291
  0
LINE
  8
0
 10
-15.0734
 20
-8.76291
 11
-15.2292
 21
-8.92198
  0
LINE
  8
0
 10
-15.2292
 20
-8.92198
 11
-15.4001
 21
-9.06807
  0
LINE
  8
0
 10
-15.4001
 20
-9.06807
 11
-15.5856
 21
-9.2
  0
LINE
  8
0
 10
-15.5856
 20
-9.2
 11
-16.3272
 21
-9.61023
  0
LINE
  8
0
 10
-16.3272
 20
-9.61023
 11
-16.4344
 21
-9.69419
  0
LINE
  8
0
 10
-16.4344
 20
-9.69419
 11
-16.523
 21
-9.7941
  0
LINE
  8
0
 10
-16.523
 20
-9.7941
 11
-16.592
 21
-9.90699
  0
LINE
  8
0
 10
-16.592
 20
-9.90699
 11
-16.6405
 21
-10.0299
  0
LINE
  8
0
 10
-16.6405
 20
-10.0299
 11
-16.6677
 21
-10.1599
  0
LINE
  8
0
 10
-16.6677
 20
-10.1599
 11
-16.6727
 21
-10.294
  0
LINE
  8
0
 10
-16.6727
 20
-10.294
 11
-16.6545
 21
-10.4293
  0
LINE
  8
0
 10
-16.6545
 20
-10.4293
 11
-16.6342
 21
-10.4933
  0
LINE
  8
0
 10
-16.6342
 20
-10.4933
 11
-16.6342
 21
-10.4934
  0
LINE
  8
0
 10
-16.6342
 20
-10.4934
 11
-16.3683
 21
-10.937
  0
LINE
  8
0
 10
-16.3683
 20
-10.937
 11
-16.0603
 21
-11.3524
  0
LINE
  8
0
 10
-16.0603
 20
-11.3524
 11
-16.0457
 21
-11.3646
  0
LINE
  8
0
 10
-16.0457
 20
-11.3646
 11
-16.0456
 21
-11.3646
  0
LINE
  8
0
 10
-16.0456
 20
-11.3646
 11
-16.0088
 21
-11.3956
  0
LINE
  8
0
 10
-16.0088
 20
-11.3956
 11
-15.8907
 21
-11.4642
  0
LINE
  8
0
 10
-15.8907
 20
-11.4642
 11
-15.7649
 21
-11.511
  0
LINE
  8
0
 10
-15.7649
 20
-11.511
 11
-15.6344
 21
-11.5356
  0
LINE
  8
0
 10
-15.6344
 20
-11.5356
 11
-15.5022
 21
-11.5378
  0
LINE
  8
0
 10
-15.5022
 20
-11.5378
 11
-15.3715
 21
-11.5173
  0
LINE
  8
0
 10
-15.3715
 20
-11.5173
 11
-15.2454
 21
-11.4737
  0
LINE
  8
0
 10
-15.2454
 20
-11.4737
 11
-15.1268
 21
-11.4067
  0
LINE
  8
0
 10
-15.1268
 20
-11.4067
 11
-14.4641
 21
-10.8785
  0
LINE
  8
0
 10
-14.4641
 20
-10.8785
 11
-14.2713
 21
-10.7574
  0
LINE
  8
0
 10
-14.2713
 20
-10.7574
 11
-14.0709
 21
-10.6553
  0
LINE
  8
0
 10
-14.0709
 20
-10.6553
 11
-13.8644
 21
-10.5721
  0
LINE
  8
0
 10
-13.8644
 20
-10.5721
 11
-13.6527
 21
-10.5076
  0
LINE
  8
0
 10
-13.6527
 20
-10.5076
 11
-13.4372
 21
-10.4619
  0
LINE
  8
0
 10
-13.4372
 20
-10.4619
 11
-13.2191
 21
-10.4346
  0
LINE
  8
0
 10
-13.2191
 20
-10.4346
 11
-12.9995
 21
-10.4258
  0
LINE
  8
0
 10
-12.9995
 20
-10.4258
 11
-12.7797
 21
-10.4354
  0
LINE
  8
0
 10
-12.7797
 20
-10.4354
 11
-12.561
 21
-10.4633
  0
LINE
  8
0
 10
-12.561
 20
-10.4633
 11
-12.3444
 21
-10.5092
  0
LINE
  8
0
 10
-12.3444
 20
-10.5092
 11
-12.1313
 21
-10.5733
  0
LINE
  8
0
 10
-12.1313
 20
-10.5733
 11
-11.9229
 21
-10.6552
  0
LINE
  8
0
 10
-11.9229
 20
-10.6552
 11
-11.7203
 21
-10.755
  0
LINE
  8
0
 10
-11.7203
 20
-10.755
 11
-11.5248
 21
-10.8725
  0
LINE
  8
0
 10
-11.5248
 20
-10.8725
 11
-11.3376
 21
-11.0076
  0
LINE
  8
0
 10
-11.3376
 20
-11.0076
 11
-11.16
 21
-11.1602
  0
LINE
  8
0
 10
-11.16
 20
-11.1602
 11
-11.0075
 21
-11.3379
  0
LINE
  8
0
 10
-11.0075
 20
-11.3379
 11
-10.8726
 21
-11.525
  0
LINE
  8
0
 10
-10.8726
 20
-11.525
 11
-10.7552
 21
-11.7205
  0
LINE
  8
0
 10
-10.7552
 20
-11.7205
 11
-10.6556
 21
-11.923
  0
LINE
  8
0
 10
-10.6556
 20
-11.923
 11
-10.5737
 21
-12.1314
  0
LINE
  8
0
 10
-10.5737
 20
-12.1314
 11
-10.5098
 21
-12.3444
  0
LINE
  8
0
 10
-10.5098
 20
-12.3444
 11
-10.4639
 21
-12.5609
  0
LINE
  8
0
 10
-10.4639
 20
-12.5609
 11
-10.4361
 21
-12.7796
  0
LINE
  8
0
 10
-10.4361
 20
-12.7796
 11
-10.4265
 21
-12.9994
  0
LINE
  8
0
 10
-10.4265
 20
-12.9994
 11
-10.4352
 21
-13.2189
  0
LINE
  8
0
 10
-10.4352
 20
-13.2189
 11
-10.4624
 21
-13.437
  0
LINE
  8
0
 10
-10.4624
 20
-13.437
 11
-10.5082
 21
-13.6525
  0
LINE
  8
0
 10
-10.5082
 20
-13.6525
 11
-10.5725
 21
-13.8642
  0
LINE
  8
0
 10
-10.5725
 20
-13.8642
 11
-10.6557
 21
-14.0708
  0
LINE
  8
0
 10
-10.6557
 20
-14.0708
 11
-10.7576
 21
-14.2712
  0
LINE
  8
0
 10
-10.7576
 20
-14.2712
 11
-10.8785
 21
-14.4641
  0
LINE
  8
0
 10
-10.8785
 20
-14.4641
 11
-11.4067
 21
-15.1268
  0
LINE
  8
0
 10
-11.4067
 20
-15.1268
 11
-11.4736
 21
-15.2454
  0
LINE
  8
0
 10
-11.4736
 20
-15.2454
 11
-11.5172
 21
-15.3716
  0
LINE
  8
0
 10
-11.5172
 20
-15.3716
 11
-11.5377
 21
-15.5023
  0
LINE
  8
0
 10
-11.5377
 20
-15.5023
 11
-11.5355
 21
-15.6345
  0
LINE
  8
0
 10
-11.5355
 20
-15.6345
 11
-11.5109
 21
-15.765
  0
LINE
  8
0
 10
-11.5109
 20
-15.765
 11
-11.4642
 21
-15.8908
  0
LINE
  8
0
 10
-11.4642
 20
-15.8908
 11
-11.3956
 21
-16.0088
  0
LINE
  8
0
 10
-11.3956
 20
-16.0088
 11
-11.3524
 21
-16.0602
  0
LINE
  8
0
 10
-11.3524
 20
-16.0602
 11
-11.3524
 21
-16.0603
  0
LINE
  8
0
 10
-11.3524
 20
-16.0603
 11
-10.937
 21
-16.3683
  0
LINE
  8
0
 10
-10.937
 20
-16.3683
 11
-10.4934
 21
-16.6342
  0
LINE
  8
0
 10
-10.4934
 20
-16.6342
 11
-10.4752
 21
-16.64
  0
LINE
  8
0
 10
-10.4752
 20
-16.64
 11
-10.4752
 21
-16.64
  0
LINE
  8
0
 10
-10.4752
 20
-16.64
 11
-10.4293
 21
-16.6545
  0
LINE
  8
0
 10
-10.4293
 20
-16.6545
 11
-10.294
 21
-16.6727
  0
LINE
  8
0
 10
-10.294
 20
-16.6727
 11
-10.1598
 21
-16.6677
  0
LINE
  8
0
 10
-10.1598
 20
-16.6677
 11
-10.0298
 21
-16.6405
  0
LINE
  8
0
 10
-10.0298
 20
-16.6405
 11
-9.90684
 21
-16.592
  0
LINE
  8
0
 10
-9.90684
 20
-16.592
 11
-9.79396
 21
-16.523
  0
LINE
  8
0
 10
-9.79396
 20
-16.523
 11
-9.69409
 21
-16.4344
  0
LINE
  8
0
 10
-9.69409
 20
-16.4344
 11
-9.61023
 21
-16.3272
  0
LINE
  8
0
 10
-9.61023
 20
-16.3272
 11
-9.2
 21
-15.5856
  0
LINE
  8
0
 10
-9.2
 20
-15.5856
 11
-9.06822
 21
-15.4
  0
LINE
  8
0
 10
-9.06822
 20
-15.4
 11
-8.92224
 21
-15.229
  0
LINE
  8
0
 10
-8.92224
 20
-15.229
 11
-8.76323
 21
-15.073
  0
LINE
  8
0
 10
-8.76323
 20
-15.073
 11
-8.59236
 21
-14.9325
  0
LINE
  8
0
 10
-8.59236
 20
-14.9325
 11
-8.41078
 21
-14.8077
  0
LINE
  8
0
 10
-8.41078
 20
-14.8077
 11
-8.21966
 21
-14.699
  0
LINE
  8
0
 10
-8.21966
 20
-14.699
 11
-8.02016
 21
-14.6069
  0
LINE
  8
0
 10
-8.02016
 20
-14.6069
 11
-7.81344
 21
-14.5317
  0
LINE
  8
0
 10
-7.81344
 20
-14.5317
 11
-7.60069
 21
-14.4737
  0
LINE
  8
0
 10
-7.60069
 20
-14.4737
 11
-7.38303
 21
-14.4333
  0
LINE
  8
0
 10
-7.38303
 20
-14.4333
 11
-7.16166
 21
-14.4109
  0
LINE
  8
0
 10
-7.16166
 20
-14.4109
 11
-6.93773
 21
-14.4068
  0
LINE
  8
0
 10
-6.93773
 20
-14.4068
 11
-6.71238
 21
-14.4215
  0
LINE
  8
0
 10
-6.71238
 20
-14.4215
 11
-6.48683
 21
-14.4552
  0
LINE
  8
0
 10
-6.48683
 20
-14.4552
 11
-6.26218
 21
-14.5084
  0
LINE
  8
0
 10
-6.26218
 20
-14.5084
 11
-6.03965
 21
-14.5815
  0
LINE
  8
0
 10
-6.03965
 20
-14.5815
 11
-5.83081
 21
-14.6872
  0
LINE
  8
0
 10
-5.83081
 20
-14.6872
 11
-5.63451
 21
-14.8085
  0
LINE
  8
0
 10
-5.63451
 20
-14.8085
 11
-5.45129
 21
-14.9442
  0
LINE
  8
0
 10
-5.45129
 20
-14.9442
 11
-5.28171
 21
-15.0931
  0
LINE
  8
0
 10
-5.28171
 20
-15.0931
 11
-5.12636
 21
-15.2543
  0
LINE
  8
0
 10
-5.12636
 20
-15.2543
 11
-4.98576
 21
-15.4267
  0
LINE
  8
0
 10
-4.98576
 20
-15.4267
 11
-4.86049
 21
-15.6091
  0
LINE
  8
0
 10
-4.86049
 20
-15.6091
 11
-4.75111
 21
-15.8006
  0
LINE
  8
0
 10
-4.75111
 20
-15.8006
 11
-4.65819
 21
-15.9999
  0
LINE
  8
0
 10
-4.65819
 20
-15.9999
 11
-4.58226
 21
-16.2061
  0
LINE
  8
0
 10
-4.58226
 20
-16.2061
 11
-4.52392
 21
-16.418
  0
LINE
  8
0
 10
-4.52392
 20
-16.418
 11
-4.4837
 21
-16.6346
  0
LINE
  8
0
 10
-4.4837
 20
-16.6346
 11
-4.46216
 21
-16.8548
  0
LINE
  8
0
 10
-4.46216
 20
-16.8548
 11
-4.45989
 21
-17.0775
  0
LINE
  8
0
 10
-4.45989
 20
-17.0775
 11
-4.47741
 21
-17.3016
  0
LINE
  8
0
 10
-4.47741
 20
-17.3016
 11
-4.51531
 21
-17.5261
  0
LINE
  8
0
 10
-4.51531
 20
-17.5261
 11
-4.74959
 21
-18.3405
  0
LINE
  8
0
 10
-4.74959
 20
-18.3405
 11
-4.76604
 21
-18.4757
  0
LINE
  8
0
 10
-4.76604
 20
-18.4757
 11
-4.75801
 21
-18.609
  0
LINE
  8
0
 10
-4.75801
 20
-18.609
 11
-4.72699
 21
-18.7376
  0
LINE
  8
0
 10
-4.72699
 20
-18.7376
 11
-4.6744
 21
-18.8588
  0
LINE
  8
0
 10
-4.6744
 20
-18.8588
 11
-4.60171
 21
-18.97
  0
LINE
  8
0
 10
-4.60171
 20
-18.97
 11
-4.51039
 21
-19.0683
  0
LINE
  8
0
 10
-4.51039
 20
-19.0683
 11
-4.40188
 21
-19.1511
  0
LINE
  8
0
 10
-4.40188
 20
-19.1511
 11
-4.38498
 21
-19.1599
  0
LINE
  8
0
 10
-4.38498
 20
-19.1599
 11
-4.34227
 21
-19.1821
  0
LINE
  8
0
 10
-4.34227
 20
-19.1821
 11
-4.34223
 21
-19.1821
  0
LINE
  8
0
 10
-4.34223
 20
-19.1821
 11
-3.84055
 21
-19.3078
  0
LINE
  8
0
 10
-3.84055
 20
-19.3078
 11
-3.32898
 21
-19.3837
  0
LINE
  8
0
 10
-3.32898
 20
-19.3837
 11
-3.31
 21
-19.3821
  0
LINE
  8
0
 10
-3.31
 20
-19.3821
 11
-3.30996
 21
-19.3821
  0
LINE
  8
0
 10
-3.30996
 20
-19.3821
 11
-3.26199
 21
-19.3779
  0
LINE
  8
0
 10
-3.26199
 20
-19.3779
 11
-3.13003
 21
-19.3429
  0
LINE
  8
0
 10
-3.13003
 20
-19.3429
 11
-3.00797
 21
-19.287
  0
LINE
  8
0
 10
-3.00797
 20
-19.287
 11
-2.89825
 21
-19.2121
  0
LINE
  8
0
 10
-2.89825
 20
-19.2121
 11
-2.80324
 21
-19.1202
  0
LINE
  8
0
 10
-2.80324
 20
-19.1202
 11
-2.72536
 21
-19.0133
  0
LINE
  8
0
 10
-2.72536
 20
-19.0133
 11
-2.66698
 21
-18.8932
  0
LINE
  8
0
 10
-2.66698
 20
-18.8932
 11
-2.63056
 21
-18.762
  0
LINE
  8
0
 10
-2.63056
 20
-18.762
 11
-2.53534
 21
-17.9199
  0
LINE
  8
0
 10
-2.53534
 20
-17.9199
 11
-2.48464
 21
-17.698
  0
LINE
  8
0
 10
-2.48464
 20
-17.698
 11
-2.4152
 21
-17.4841
  0
LINE
  8
0
 10
-2.4152
 20
-17.4841
 11
-2.32798
 21
-17.2792
  0
LINE
  8
0
 10
-2.32798
 20
-17.2792
 11
-2.2239
 21
-17.084
  0
LINE
  8
0
 10
-2.2239
 20
-17.084
 11
-2.10389
 21
-16.8992
  0
LINE
  8
0
 10
-2.10389
 20
-16.8992
 11
-1.96889
 21
-16.7257
  0
LINE
  8
0
 10
-1.96889
 20
-16.7257
 11
-1.81984
 21
-16.5642
  0
LINE
  8
0
 10
-1.81984
 20
-16.5642
 11
-1.65765
 21
-16.4156
  0
LINE
  8
0
 10
-1.65765
 20
-16.4156
 11
-1.48329
 21
-16.2806
  0
LINE
  8
0
 10
-1.48329
 20
-16.2806
 11
-1.29766
 21
-16.16
  0
LINE
  8
0
 10
-1.29766
 20
-16.16
 11
-1.10171
 21
-16.0546
  0
LINE
  8
0
 10
-1.10171
 20
-16.0546
 11
-0.896378
 21
-15.9651
  0
LINE
  8
0
 10
-0.896378
 20
-15.9651
 11
-0.682571
 21
-15.8924
  0
LINE
  8
0
 10
-0.682571
 20
-15.8924
 11
-0.461267
 21
-15.8373
  0
LINE
  8
0
 10
-0.461267
 20
-15.8373
 11
-0.23336
 21
-15.8005
  0
LINE
  8
0
 10
-0.23336
 20
-15.8005
 11
0.000171661
 21
-15.7828
  0
LINE
  8
0
 10
0.000171661
 20
-15.7828
 11
0.233598
 21
-15.8006
  0
LINE
  8
0
 10
0.233598
 20
-15.8006
 11
0.461363
 21
-15.8375
  0
LINE
  8
0
 10
0.461363
 20
-15.8375
 11
0.682541
 21
-15.8927
  0
LINE
  8
0
 10
0.682541
 20
-15.8927
 11
0.896219
 21
-15.9655
  0
LINE
  8
0
 10
0.896219
 20
-15.9655
 11
1.10144
 21
-16.0549
  0
LINE
  8
0
 10
1.10144
 20
-16.0549
 11
1.29729
 21
-16.1604
  0
LINE
  8
0
 10
1.29729
 20
-16.1604
 11
1.48285
 21
-16.281
  0
LINE
  8
0
 10
1.48285
 20
-16.281
 11
1.65716
 21
-16.416
  0
LINE
  8
0
 10
1.65716
 20
-16.416
 11
1.81929
 21
-16.5646
  0
LINE
  8
0
 10
1.81929
 20
-16.5646
 11
1.96834
 21
-16.726
  0
LINE
  8
0
 10
1.96834
 20
-16.726
 11
2.10334
 21
-16.8995
  0
LINE
  8
0
 10
2.10334
 20
-16.8995
 11
2.22338
 21
-17.0842
  0
LINE
  8
0
 10
2.22338
 20
-17.0842
 11
2.32755
 21
-17.2794
  0
LINE
  8
0
 10
2.32755
 20
-17.2794
 11
2.41487
 21
-17.4843
  0
LINE
  8
0
 10
2.41487
 20
-17.4843
 11
2.48445
 21
-17.698
  0
LINE
  8
0
 10
2.48445
 20
-17.698
 11
2.53534
 21
-17.9199
  0
LINE
  8
0
 10
2.53534
 20
-17.9199
 11
2.63056
 21
-18.762
  0
LINE
  8
0
 10
2.63056
 20
-18.762
 11
2.66709
 21
-18.8932
  0
LINE
  8
0
 10
2.66709
 20
-18.8932
 11
2.72551
 21
-19.0133
  0
LINE
  8
0
 10
2.72551
 20
-19.0133
 11
2.80339
 21
-19.1202
  0
LINE
  8
0
 10
2.80339
 20
-19.1202
 11
2.89838
 21
-19.2121
  0
LINE
  8
0
 10
2.89838
 20
-19.2121
 11
3.00807
 21
-19.287
  0
LINE
  8
0
 10
3.00807
 20
-19.287
 11
3.13008
 21
-19.3429
  0
LINE
  8
0
 10
3.13008
 20
-19.3429
 11
3.26201
 21
-19.3779
  0
LINE
  8
0
 10
3.26201
 20
-19.3779
 11
3.28098
 21
-19.3795
  0
LINE
  8
0
 10
3.28098
 20
-19.3795
 11
3.32894
 21
-19.3837
  0
LINE
  8
0
 10
3.32894
 20
-19.3837
 11
3.32898
 21
-19.3837
  0
LINE
  8
0
 10
3.32898
 20
-19.3837
 11
3.84055
 21
-19.3078
  0
LINE
  8
0
 10
3.84055
 20
-19.3078
 11
4.34223
 21
-19.1821
  0
LINE
  8
0
 10
4.34223
 20
-19.1821
 11
4.35914
 21
-19.1733
  0
LINE
  8
0
 10
4.35914
 20
-19.1733
 11
4.35917
 21
-19.1733
  0
LINE
  8
0
 10
4.35917
 20
-19.1733
 11
4.4019
 21
-19.1511
  0
LINE
  8
0
 10
4.4019
 20
-19.1511
 11
4.51043
 21
-19.0683
  0
LINE
  8
0
 10
4.51043
 20
-19.0683
 11
4.6018
 21
-18.9699
  0
LINE
  8
0
 10
4.6018
 20
-18.9699
 11
4.67451
 21
-18.8588
  0
LINE
  8
0
 10
4.67451
 20
-18.8588
 11
4.72713
 21
-18.7375
  0
LINE
  8
0
 10
4.72713
 20
-18.7375
 11
4.75816
 21
-18.6089
  0
LINE
  8
0
 10
4.75816
 20
-18.6089
 11
4.76614
 21
-18.4757
  0
LINE
  8
0
 10
4.76614
 20
-18.4757
 11
4.74959
 21
-18.3405
  0
LINE
  8
0
 10
4.74959
 20
-18.3405
 11
4.51531
 21
-17.5261
  0
LINE
  8
0
 10
4.51531
 20
-17.5261
 11
4.47721
 21
-17.3016
  0
LINE
  8
0
 10
4.47721
 20
-17.3016
 11
4.45954
 21
-17.0775
  0
LINE
  8
0
 10
4.45954
 20
-17.0775
 11
4.46169
 21
-16.8548
  0
LINE
  8
0
 10
4.46169
 20
-16.8548
 11
4.48313
 21
-16.6346
  0
LINE
  8
0
 10
4.48313
 20
-16.6346
 11
4.5233
 21
-16.4179
  0
LINE
  8
0
 10
4.5233
 20
-16.4179
 11
4.58162
 21
-16.206
  0
LINE
  8
0
 10
4.58162
 20
-16.206
 11
4.65753
 21
-15.9998
  0
LINE
  8
0
 10
4.65753
 20
-15.9998
 11
4.7505
 21
-15.8004
  0
LINE
  8
0
 10
4.7505
 20
-15.8004
 11
4.85993
 21
-15.6089
  0
LINE
  8
0
 10
4.85993
 20
-15.6089
 11
4.98528
 21
-15.4265
  0
LINE
  8
0
 10
4.98528
 20
-15.4265
 11
5.12596
 21
-15.2541
  0
LINE
  8
0
 10
5.12596
 20
-15.2541
 11
5.28144
 21
-15.0929
  0
LINE
  8
0
 10
5.28144
 20
-15.0929
 11
5.45115
 21
-14.9439
  0
LINE
  8
0
 10
5.45115
 20
-14.9439
 11
5.63451
 21
-14.8083
  0
LINE
  8
0
 10
5.63451
 20
-14.8083
 11
5.83099
 21
-14.6871
  0
LINE
  8
0
 10
5.83099
 20
-14.6871
 11
6.03997
 21
-14.5813
  0
LINE
  8
0
 10
6.03997
 20
-14.5813
 11
6.26244
 21
-14.5085
  0
LINE
  8
0
 10
6.26244
 20
-14.5085
 11
6.487
 21
-14.4554
  0
LINE
  8
0
 10
6.487
 20
-14.4554
 11
6.71246
 21
-14.4218
  0
LINE
  8
0
 10
6.71246
 20
-14.4218
 11
6.93771
 21
-14.4072
  0
LINE
  8
0
 10
6.93771
 20
-14.4072
 11
7.16156
 21
-14.4113
  0
LINE
  8
0
 10
7.16156
 20
-14.4113
 11
7.38285
 21
-14.4338
  0
LINE
  8
0
 10
7.38285
 20
-14.4338
 11
7.60044
 21
-14.4742
  0
LINE
  8
0
 10
7.60044
 20
-14.4742
 11
7.81314
 21
-14.5322
  0
LINE
  8
0
 10
7.81314
 20
-14.5322
 11
8.0198
 21
-14.6075
  0
LINE
  8
0
 10
8.0198
 20
-14.6075
 11
8.21928
 21
-14.6996
  0
LINE
  8
0
 10
8.21928
 20
-14.6996
 11
8.41038
 21
-14.8082
  0
LINE
  8
0
 10
8.41038
 20
-14.8082
 11
8.59198
 21
-14.9329
  0
LINE
  8
0
 10
8.59198
 20
-14.9329
 11
8.76291
 21
-15.0734
  0
LINE
  8
0
 10
8.76291
 20
-15.0734
 11
8.92198
 21
-15.2292
  0
LINE
  8
0
 10
8.92198
 20
-15.2292
 11
9.06807
 21
-15.4001
  0
LINE
  8
0
 10
9.06807
 20
-15.4001
 11
9.2
 21
-15.5856
  0
LINE
  8
0
 10
9.2
 20
-15.5856
 11
9.61023
 21
-16.3272
  0
LINE
  8
0
 10
9.61023
 20
-16.3272
 11
9.69419
 21
-16.4344
  0
LINE
  8
0
 10
9.69419
 20
-16.4344
 11
9.7941
 21
-16.523
  0
LINE
  8
0
 10
9.7941
 20
-16.523
 11
9.90699
 21
-16.592
  0
LINE
  8
0
 10
9.90699
 20
-16.592
 11
10.0299
 21
-16.6405
  0
LINE
  8
0
 10
10.0299
 20
-16.6405
 11
10.1599
 21
-16.6677
  0
LINE
  8
0
 10
10.1599
 20
-16.6677
 11
10.294
 21
-16.6727
  0
LINE
  8
0
 10
10.294
 20
-16.6727
 11
10.4293
 21
-16.6545
  0
LINE
  8
0
 10
10.4293
 20
-16.6545
 11
10.4475
 21
-16.6487
  0
LINE
  8
0
 10
10.4475
 20
-16.6487
 11
10.4933
 21
-16.6342
  0
LINE
  8
0
 10
10.4933
 20
-16.6342
 11
10.4934
 21
-16.6342
  0
LINE
  8
0
 10
10.4934
 20
-16.6342
 11
10.937
 21
-16.3683
  0
LINE
  8
0
 10
10.937
 20
-16.3683
 11
11.3524
 21
-16.0603
  0
LINE
  8
0
 10
11.3524
 20
-16.0603
 11
11.3524
 21
-16.0602
  0
LINE
  8
0
 10
11.3524
 20
-16.0602
 11
11.3956
 21
-16.0088
  0
LINE
  8
0
 10
11.3956
 20
-16.0088
 11
11.4642
 21
-15.8907
  0
LINE
  8
0
 10
11.4642
 20
-15.8907
 11
11.511
 21
-15.7649
  0
LINE
  8
0
 10
11.511
 20
-15.7649
 11
11.5356
 21
-15.6344
  0
LINE
  8
0
 10
11.5356
 20
-15.6344
 11
11.5378
 21
-15.5022
  0
LINE
  8
0
 10
11.5378
 20
-15.5022
 11
11.5173
 21
-15.3715
  0
LINE
  8
0
 10
11.5173
 20
-15.3715
 11
11.4737
 21
-15.2454
  0
LINE
  8
0
 10
11.4737
 20
-15.2454
 11
11.4067
 21
-15.1268
  0
LINE
  8
0
 10
11.4067
 20
-15.1268
 11
10.8785
 21
-14.4641
  0
LINE
  8
0
 10
10.8785
 20
-14.4641
 11
10.7574
 21
-14.2713
  0
LINE
  8
0
 10
10.7574
 20
-14.2713
 11
10.6553
 21
-14.0709
  0
LINE
  8
0
 10
10.6553
 20
-14.0709
 11
10.5721
 21
-13.8644
  0
LINE
  8
0
 10
10.5721
 20
-13.8644
 11
10.5076
 21
-13.6527
  0
LINE
  8
0
 10
10.5076
 20
-13.6527
 11
10.4619
 21
-13.4372
  0
LINE
  8
0
 10
10.4619
 20
-13.4372
 11
10.4346
 21
-13.2191
  0
LINE
  8
0
 10
10.4346
 20
-13.2191
 11
10.4258
 21
-12.9995
  0
LINE
  8
0
 10
10.4258
 20
-12.9995
 11
10.4354
 21
-12.7797
  0
LINE
  8
0
 10
10.4354
 20
-12.7797
 11
10.4633
 21
-12.561
  0
LINE
  8
0
 10
10.4633
 20
-12.561
 11
10.5092
 21
-12.3444
  0
LINE
  8
0
 10
10.5092
 20
-12.3444
 11
10.5733
 21
-12.1313
  0
LINE
  8
0
 10
10.5733
 20
-12.1313
 11
10.6552
 21
-11.9229
  0
LINE
  8
0
 10
10.6552
 20
-11.9229
 11
10.755
 21
-11.7203
  0
LINE
  8
0
 10
10.755
 20
-11.7203
 11
10.8725
 21
-11.5248
  0
LINE
  8
0
 10
10.8725
 20
-11.5248
 11
11.0076
 21
-11.3376
  0
LINE
  8
0
 10
11.0076
 20
-11.3376
 11
11.1602
 21
-11.16
  0
LINE
  8
0
 10
11.1602
 20
-11.16
 11
11.3379
 21
-11.0075
  0
LINE
  8
0
 10
11.3379
 20
-11.0075
 11
11.525
 21
-10.8726
  0
LINE
  8
0
 10
11.525
 20
-10.8726
 11
11.7205
 21
-10.7552
  0
LINE
  8
0
 10
11.7205
 20
-10.7552
 11
11.923
 21
-10.6556
  0
LINE
  8
0
 10
11.923
 20
-10.6556
 11
12.1314
 21
-10.5737
  0
LINE
  8
0
 10
12.1314
 20
-10.5737
 11
12.3444
 21
-10.5098
  0
LINE
  8
0
 10
12.3444
 20
-10.5098
 11
12.5609
 21
-10.4639
  0
LINE
  8
0
 10
12.5609
 20
-10.4639
 11
12.7796
 21
-10.4361
  0
LINE
  8
0
 10
12.7796
 20
-10.4361
 11
12.9994
 21
-10.4265
  0
LINE
  8
0
 10
12.9994
 20
-10.4265
 11
13.2189
 21
-10.4352
  0
LINE
  8
0
 10
13.2189
 20
-10.4352
 11
13.437
 21
-10.4624
  0
LINE
  8
0
 10
13.437
 20
-10.4624
 11
13.6525
 21
-10.5082
  0
LINE
  8
0
 10
13.6525
 20
-10.5082
 11
13.8642
 21
-10.5725
  0
LINE
  8
0
 10
13.8642
 20
-10.5725
 11
14.0708
 21
-10.6557
  0
LINE
  8
0
 10
14.0708
 20
-10.6557
 11
14.2712
 21
-10.7576
  0
LINE
  8
0
 10
14.2712
 20
-10.7576
 11
14.4641
 21
-10.8785
  0
LINE
  8
0
 10
14.4641
 20
-10.8785
 11
15.1268
 21
-11.4067
  0
LINE
  8
0
 10
15.1268
 20
-11.4067
 11
15.2454
 21
-11.4736
  0
LINE
  8
0
 10
15.2454
 20
-11.4736
 11
15.3716
 21
-11.5172
  0
LINE
  8
0
 10
15.3716
 20
-11.5172
 11
15.5023
 21
-11.5377
  0
LINE
  8
0
 10
15.5023
 20
-11.5377
 11
15.6345
 21
-11.5355
  0
LINE
  8
0
 10
15.6345
 20
-11.5355
 11
15.765
 21
-11.5109
  0
LINE
  8
0
 10
15.765
 20
-11.5109
 11
15.8908
 21
-11.4642
  0
LINE
  8
0
 10
15.8908
 20
-11.4642
 11
16.0088
 21
-11.3956
  0
LINE
  8
0
 10
16.0088
 20
-11.3956
 11
16.0234
 21
-11.3834
  0
LINE
  8
0
 10
16.0234
 20
-11.3834
 11
16.0602
 21
-11.3524
  0
LINE
  8
0
 10
16.0602
 20
-11.3524
 11
16.0603
 21
-11.3524
  0
LINE
  8
0
 10
16.0603
 20
-11.3524
 11
16.3683
 21
-10.937
  0
LINE
  8
0
 10
16.3683
 20
-10.937
 11
16.6342
 21
-10.4934
  0
LINE
  8
0
 10
16.6342
 20
-10.4934
 11
16.6342
 21
-10.4933
  0
LINE
  8
0
 10
16.6342
 20
-10.4933
 11
16.6545
 21
-10.4293
  0
LINE
  8
0
 10
16.6545
 20
-10.4293
 11
16.6727
 21
-10.294
  0
LINE
  8
0
 10
16.6727
 20
-10.294
 11
16.6677
 21
-10.1598
  0
LINE
  8
0
 10
16.6677
 20
-10.1598
 11
16.6405
 21
-10.0298
  0
LINE
  8
0
 10
16.6405
 20
-10.0298
 11
16.592
 21
-9.90684
  0
LINE
  8
0
 10
16.592
 20
-9.90684
 11
16.523
 21
-9.79396
  0
LINE
  8
0
 10
16.523
 20
-9.79396
 11
16.4344
 21
-9.69409
  0
LINE
  8
0
 10
16.4344
 20
-9.69409
 11
16.3272
 21
-9.61023
  0
LINE
  8
0
 10
16.3272
 20
-9.61023
 11
15.5856
 21
-9.2
  0
LINE
  8
0
 10
15.5856
 20
-9.2
 11
15.4
 21
-9.06822
  0
LINE
  8
0
 10
15.4
 20
-9.06822
 11
15.229
 21
-8.92224
  0
LINE
  8
0
 10
15.229
 20
-8.92224
 11
15.073
 21
-8.76323
  0
LINE
  8
0
 10
15.073
 20
-8.76323
 11
14.9325
 21
-8.59236
  0
LINE
  8
0
 10
14.9325
 20
-8.59236
 11
14.8077
 21
-8.41078
  0
LINE
  8
0
 10
14.8077
 20
-8.41078
 11
14.699
 21
-8.21966
  0
LINE
  8
0
 10
14.699
 20
-8.21966
 11
14.6069
 21
-8.02016
  0
LINE
  8
0
 10
14.6069
 20
-8.02016
 11
14.5317
 21
-7.81344
  0
LINE
  8
0
 10
14.5317
 20
-7.81344
 11
14.4737
 21
-7.60069
  0
LINE
  8
0
 10
14.4737
 20
-7.60069
 11
14.4333
 21
-7.38303
  0
LINE
  8
0
 10
14.4333
 20
-7.38303
 11
14.4109
 21
-7.16166
  0
LINE
  8
0
 10
14.4109
 20
-7.16166
 11
14.4068
 21
-6.93773
  0
LINE
  8
0
 10
14.4068
 20
-6.93773
 11
14.4215
 21
-6.71238
  0
LINE
  8
0
 10
14.4215
 20
-6.71238
 11
14.4552
 21
-6.48683
  0
LINE
  8
0
 10
14.4552
 20
-6.48683
 11
14.5084
 21
-6.26218
  0
LINE
  8
0
 10
14.5084
 20
-6.26218
 11
14.5815
 21
-6.03965
  0
LINE
  8
0
 10
14.5815
 20
-6.03965
 11
14.6872
 21
-5.83081
  0
LINE
  8
0
 10
14.6872
 20
-5.83081
 11
14.8085
 21
-5.63451
  0
LINE
  8
0
 10
14.8085
 20
-5.63451
 11
14.9442
 21
-5.45129
  0
LINE
  8
0
 10
14.9442
 20
-5.45129
 11
15.0931
 21
-5.28171
  0
LINE
  8
0
 10
15.0931
 20
-5.28171
 11
15.2543
 21
-5.12636
  0
LINE
  8
0
 10
15.2543
 20
-5.12636
 11
15.4267
 21
-4.98576
  0
LINE
  8
0
 10
15.4267
 20
-4.98576
 11
15.6091
 21
-4.86049
  0
LINE
  8
0
 10
15.6091
 20
-4.86049
 11
15.8006
 21
-4.75111
  0
LINE
  8
0
 10
15.8006
 20
-4.75111
 11
15.9999
 21
-4.65819
  0
LINE
  8
0
 10
15.9999
 20
-4.65819
 11
16.2061
 21
-4.58226
  0
LINE
  8
0
 10
16.2061
 20
-4.58226
 11
16.418
 21
-4.52392
  0
LINE
  8
0
 10
16.418
 20
-4.52392
 11
16.6346
 21
-4.4837
  0
LINE
  8
0
 10
16.6346
 20
-4.4837
 11
16.8548
 21
-4.46216
  0
LINE
  8
0
 10
16.8548
 20
-4.46216
 11
17.0775
 21
-4.45989
  0
LINE
  8
0
 10
17.0775
 20
-4.45989
 11
17.3016
 21
-4.47741
  0
LINE
  8
0
 10
17.3016
 20
-4.47741
 11
17.5261
 21
-4.51531
  0
LINE
  8
0
 10
17.5261
 20
-4.51531
 11
18.3405
 21
-4.74959
  0
LINE
  8
0
 10
18.3405
 20
-4.74959
 11
18.4757
 21
-4.76604
  0
LINE
  8
0
 10
18.4757
 20
-4.76604
 11
18.609
 21
-4.75801
  0
LINE
  8
0
 10
18.609
 20
-4.75801
 11
18.7376
 21
-4.72699
  0
LINE
  8
0
 10
18.7376
 20
-4.72699
 11
18.8588
 21
-4.6744
  0
LINE
  8
0
 10
18.8588
 20
-4.6744
 11
18.97
 21
-4.60171
  0
LINE
  8
0
 10
18.97
 20
-4.60171
 11
19.0683
 21
-4.51039
  0
LINE
  8
0
 10
19.0683
 20
-4.51039
 11
19.1511
 21
-4.40188
  0
LINE
  8
0
 10
19.1511
 20
-4.40188
 11
19.1821
 21
-4.34228
  0
LINE
  8
0
 10
19.1821
 20
-4.34228
 11
19.1821
 21
-4.34223
  0
LINE
  8
0
 10
19.1821
 20
-4.34223
 11
19.3078
 21
-3.84055
  0
LINE
  8
0
 10
19.3078
 20
-3.84055
 11
19.3837
 21
-3.32898
  0
LINE
  8
0
 10
19.3837
 20
-3.32898
 11
19.3837
 21
-3.32892
  0
LINE
  8
0
 10
19.3837
 20
-3.32892
 11
19.3779
 21
-3.26199
  0
LINE
  8
0
 10
19.3779
 20
-3.26199
 11
19.3429
 21
-3.13003
  0
LINE
  8
0
 10
19.3429
 20
-3.13003
 11
19.287
 21
-3.00797
  0
LINE
  8
0
 10
19.287
 20
-3.00797
 11
19.2121
 21
-2.89825
  0
LINE
  8
0
 10
19.2121
 20
-2.89825
 11
19.1202
 21
-2.80324
  0
LINE
  8
0
 10
19.1202
 20
-2.80324
 11
19.0133
 21
-2.72536
  0
LINE
  8
0
 10
19.0133
 20
-2.72536
 11
18.8932
 21
-2.66698
  0
LINE
  8
0
 10
18.8932
 20
-2.66698
 11
18.762
 21
-2.63056
  0
LINE
  8
0
 10
18.762
 20
-2.63056
 11
17.9199
 21
-2.53534
  0
LINE
  8
0
 10
17.9199
 20
-2.53534
 11
17.698
 21
-2.48464
  0
LINE
  8
0
 10
17.698
 20
-2.48464
 11
17.4841
 21
-2.4152
  0
LINE
  8
0
 10
17.4841
 20
-2.4152
 11
17.2792
 21
-2.32798
  0
LINE
  8
0
 10
17.2792
 20
-2.32798
 11
17.084
 21
-2.2239
  0
LINE
  8
0
 10
17.084
 20
-2.2239
 11
16.8992
 21
-2.10389
  0
LINE
  8
0
 10
16.8992
 20
-2.10389
 11
16.7257
 21
-1.96889
  0
LINE
  8
0
 10
16.7257
 20
-1.96889
 11
16.5642
 21
-1.81984
  0
LINE
  8
0
 10
16.5642
 20
-1.81984
 11
16.4156
 21
-1.65765
  0
LINE
  8
0
 10
16.4156
 20
-1.65765
 11
16.2806
 21
-1.48329
  0
LINE
  8
0
 10
16.2806
 20
-1.48329
 11
16.16
 21
-1.29766
  0
LINE
  8
0
 10
16.16
 20
-1.29766
 11
16.0546
 21
-1.10171
  0
LINE
  8
0
 10
16.0546
 20
-1.10171
 11
15.9651
 21
-0.896378
  0
LINE
  8
0
 10
15.9651
 20
-0.896378
 11
15.8924
 21
-0.682571
  0
LINE
  8
0
 10
15.8924
 20
-0.682571
 11
15.8373
 21
-0.461267
  0
LINE
  8
0
 10
15.8373
 20
-0.461267
 11
15.8005
 21
-0.23336
  0
LINE
  8
0
 10
15.8005
 20
-0.23336
 11
15.7828
 21
0.000171661
  0
LINE
  8
0
 10
15.7828
 20
0.000171661
 11
15.8006
 21
0.233598
  0
LINE
  8
0
 10
15.8006
 20
0.233598
 11
15.8375
 21
0.461363
  0
LINE
  8
0
 10
15.8375
 20
0.461363
 11
15.8927
 21
0.682541
  0
LINE
  8
0
 10
15.8927
 20
0.682541
 11
15.9655
 21
0.896219
  0
LINE
  8
0
 10
15.9655
 20
0.896219
 11
16.0549
 21
1.10144
  0
LINE
  8
0
 10
16.0549
 20
1.10144
 11
16.1604
 21
1.29729
  0
LINE
  8
0
 10
16.1604
 20
1.29729
 11
16.281
 21
1.48285
  0
LINE
  8
0
 10
16.281
 20
1.48285
 11
16.416
 21
1.65716
  0
LINE
  8
0
 10
16.416
 20
1.65716
 11
16.5646
 21
1.81929
  0
LINE
  8
0
 10
16.5646
 20
1.81929
 11
16.726
 21
1.96834
  0
LINE
  8
0
 10
16.726
 20
1.96834
 11
16.8995
 21
2.10334
  0
LINE
  8
0
 10
16.8995
 20
2.10334
 11
17.0842
 21
2.22338
  0
LINE
  8
0
 10
17.0842
 20
2.22338
 11
17.2794
 21
2.32755
  0
LINE
  8
0
 10
17.2794
 20
2.32755
 11
17.4843
 21
2.41487
  0
LINE
  8
0
 10
17.4843
 20
2.41487
 11
17.698
 21
2.48445
  0
LINE
  8
0
 10
17.698
 20
2.48445
 11
17.9199
 21
2.53534
  0
LINE
  8
0
 10
17.9199
 20
2.53534
 11
18.762
 21
2.63056
  0
LINE
  8
0
 10
18.762
 20
2.63056
 11
18.8932
 21
2.66709
  0
LINE
  8
0
 10
18.8932
 20
2.66709
 11
19.0133
 21
2.72551
  0
LINE
  8
0
 10
19.0133
 20
2.72551
 11
19.1202
 21
2.80339
  0
LINE
  8
0
 10
19.1202
 20
2.80339
 11
19.2121
 21
2.89838
  0
LINE
  8
0
 10
19.2121
 20
2.89838
 11
19.287
 21
3.00807
  0
LINE
  8
0
 10
19.287
 20
3.00807
 11
19.3429
 21
3.13008
  0
LINE
  8
0
 10
19.3429
 20
3.13008
 11
19.3779
 21
3.26201
  0
LINE
  8
0
 10
19.3779
 20
3.26201
 11
19.3837
 21
3.32892
  0
LINE
  8
0
 10
19.3837
 20
3.32892
 11
19.3837
 21
3.32898
  0
LINE
  8
0
 10
19.3837
 20
3.32898
 11
19.3078
 21
3.84055
  0
LINE
  8
0
 10
19.3078
 20
3.84055
 11
19.1821
 21
4.34223
  0
LINE
  8
0
 10
19.1821
 20
4.34223
 11
19.1821
 21
4.34228
  0
LINE
  8
0
 10
19.1821
 20
4.34228
 11
19.1511
 21
4.4019
  0
LINE
  8
0
 10
19.1511
 20
4.4019
 11
19.0683
 21
4.51043
  0
LINE
  8
0
 10
19.0683
 20
4.51043
 11
18.9699
 21
4.6018
  0
LINE
  8
0
 10
18.9699
 20
4.6018
 11
18.8588
 21
4.67451
  0
LINE
  8
0
 10
18.8588
 20
4.67451
 11
18.7375
 21
4.72713
  0
LINE
  8
0
 10
18.7375
 20
4.72713
 11
18.6089
 21
4.75816
  0
LINE
  8
0
 10
18.6089
 20
4.75816
 11
18.4757
 21
4.76614
  0
LINE
  8
0
 10
18.4757
 20
4.76614
 11
18.3405
 21
4.74959
  0
LINE
  8
0
 10
18.3405
 20
4.74959
 11
17.5261
 21
4.51531
  0
LINE
  8
0
 10
17.5261
 20
4.51531
 11
17.3016
 21
4.47721
  0
LINE
  8
0
 10
17.3016
 20
4.47721
 11
17.0775
 21
4.45954
  0
LINE
  8
0
 10
17.0775
 20
4.45954
 11
16.8548
 21
4.46169
  0
LINE
  8
0
 10
16.8548
 20
4.46169
 11
16.6346
 21
4.48313
  0
LINE
  8
0
 10
16.6346
 20
4.48313
 11
16.4179
 21
4.5233
  0
LINE
  8
0
 10
16.4179
 20
4.5233
 11
16.206
 21
4.58162
  0
LINE
  8
0
 10
16.206
 20
4.58162
 11
15.9998
 21
4.65753
  0
LINE
  8
0
 10
15.9998
 20
4.65753
 11
15.8004
 21
4.7505
  0
LINE
  8
0
 10
15.8004
 20
4.7505
 11
15.6089
 21
4.85993
  0
LINE
  8
0
 10
15.6089
 20
4.85993
 11
15.4265
 21
4.98528
  0
LINE
  8
0
 10
15.4265
 20
4.98528
 11
15.2541
 21
5.12596
  0
LINE
  8
0
 10
15.2541
 20
5.12596
 11
15.0929
 21
5.28144
  0
LINE
  8
0
 10
15.0929
 20
5.28144
 11
14.9439
 21
5.45115
  0
LINE
  8
0
 10
14.9439
 20
5.45115
 11
14.8083
 21
5.63451
  0
LINE
  8
0
 10
14.8083
 20
5.63451
 11
14.6871
 21
5.83099
  0
LINE
  8
0
 10
14.6871
 20
5.83099
 11
14.5813
 21
6.03997
  0
LINE
  8
0
 10
14.5813
 20
6.03997
 11
14.5085
 21
6.26244
  0
LINE
  8
0
 10
14.5085
 20
6.26244
 11
14.4554
 21
6.487
  0
LINE
  8
0
 10
14.4554
 20
6.487
 11
14.4218
 21
6.71246
  0
LINE
  8
0
 10
14.4218
 20
6.71246
 11
14.4072
 21
6.93771
  0
LINE
  8
0
 10
14.4072
 20
6.93771
 11
14.4113
 21
7.16156
  0
LINE
  8
0
 10
14.4113
 20
7.16156
 11
14.4338
 21
7.38285
  0
LINE
  8
0
 10
14.4338
 20
7.38285
 11
14.4742
 21
7.60044
  0
LINE
  8
0
 10
14.4742
 20
7.60044
 11
14.5322
 21
7.81314
  0
LINE
  8
0
 10
14.5322
 20
7.81314
 11
14.6075
 21
8.0198
  0
LINE
  8
0
 10
14.6075
 20
8.0198
 11
14.6996
 21
8.21928
  0
LINE
  8
0
 10
14.6996
 20
8.21928
 11
14.8082
 21
8.41038
  0
LINE
  8
0
 10
14.8082
 20
8.41038
 11
14.9329
 21
8.59198
  0
LINE
  8
0
 10
14.9329
 20
8.59198
 11
15.0734
 21
8.76291
  0
LINE
  8
0
 10
15.0734
 20
8.76291
 11
15.2292
 21
8.92198
  0
LINE
  8
0
 10
15.2292
 20
8.92198
 11
15.4001
 21
9.06807
  0
LINE
  8
0
 10
15.4001
 20
9.06807
 11
15.5856
 21
9.2
  0
LINE
  8
0
 10
15.5856
 20
9.2
 11
16.3272
 21
9.61023
  0
LINE
  8
0
 10
16.3272
 20
9.61023
 11
16.4344
 21
9.69419
  0
LINE
  8
0
 10
16.4344
 20
9.69419
 11
16.523
 21
9.7941
  0
LINE
  8
0
 10
16.523
 20
9.7941
 11
16.592
 21
9.90699
  0
LINE
  8
0
 10
16.592
 20
9.90699
 11
16.6405
 21
10.0299
  0
LINE
  8
0
 10
16.6405
 20
10.0299
 11
16.6677
 21
10.1599
  0
LINE
  8
0
 10
16.6677
 20
10.1599
 11
16.6727
 21
10.294
  0
LINE
  8
0
 10
16.6727
 20
10.294
 11
16.6545
 21
10.4293
  0
LINE
  8
0
 10
16.6545
 20
10.4293
 11
16.6342
 21
10.4933
  0
LINE
  8
0
 10
16.6342
 20
10.4933
 11
16.6342
 21
10.4934
  0
LINE
  8
0
 10
16.6342
 20
10.4934
 11
16.3683
 21
10.937
  0
LINE
  8
0
 10
16.3683
 20
10.937
 11
16.0603
 21
11.3524
  0
LINE
  8
0
 10
16.0603
 20
11.3524
 11
16.0457
 21
11.3646
  0
LINE
  8
0
 10
16.0457
 20
11.3646
 11
16.0456
 21
11.3646
  0
LINE
  8
0
 10
16.0456
 20
11.3646
 11
16.0088
 21
11.3956
  0
LINE
  8
0
 10
16.0088
 20
11.3956
 11
15.8907
 21
11.4642
  0
LINE
  8
0
 10
15.8907
 20
11.4642
 11
15.7649
 21
11.511
  0
LINE
  8
0
 10
15.7649
 20
11.511
 11
15.6344
 21
11.5356
  0
LINE
  8
0
 10
15.6344
 20
11.5356
 11
15.5022
 21
11.5378
  0
LINE
  8
0
 10
15.5022
 20
11.5378
 11
15.3715
 21
11.5173
  0
LINE
  8
0
 10
15.3715
 20
11.5173
 11
15.2454
 21
11.4737
  0
LINE
  8
0
 10
15.2454
 20
11.4737
 11
15.1268
 21
11.4067
  0
LINE
  8
0
 10
15.1268
 20
11.4067
 11
14.4641
 21
10.8785
  0
LINE
  8
0
 10
14.4641
 20
10.8785
 11
14.2713
 21
10.7574
  0
LINE
  8
0
 10
14.2713
 20
10.7574
 11
14.0709
 21
10.6553
  0
LINE
  8
0
 10
14.0709
 20
10.6553
 11
13.8644
 21
10.5721
  0
LINE
  8
0
 10
13.8644
 20
10.5721
 11
13.6527
 21
10.5076
  0
LINE
  8
0
 10
13.6527
 20
10.5076
 11
13.4372
 21
10.4619
  0
LINE
  8
0
 10
13.4372
 20
10.4619
 11
13.2191
 21
10.4346
  0
LINE
  8
0
 10
13.2191
 20
10.4346
 11
12.9995
 21
10.4258
  0
LINE
  8
0
 10
12.9995
 20
10.4258
 11
12.7797
 21
10.4354
  0
LINE
  8
0
 10
12.7797
 20
10.4354
 11
12.561
 21
10.4633
  0
LINE
  8
0
 10
12.561
 20
10.4633
 11
12.3444
 21
10.5092
  0
LINE
  8
0
 10
12.3444
 20
10.5092
 11
12.1313
 21
10.5733
  0
LINE
  8
0
 10
12.1313
 20
10.5733
 11
11.9229
 21
10.6552
  0
LINE
  8
0
 10
11.9229
 20
10.6552
 11
11.7203
 21
10.755
  0
LINE
  8
0
 10
11.7203
 20
10.755
 11
11.5248
 21
10.8725
  0
LINE
  8
0
 10
11.5248
 20
10.8725
 11
11.3376
 21
11.0076
  0
LINE
  8
0
 10
11.3376
 20
11.0076
 11
11.16
 21
11.1602
  0
LINE
  8
0
 10
11.16
 20
11.1602
 11
11.0075
 21
11.3379
  0
LINE
  8
0
 10
11.0075
 20
11.3379
 11
10.8726
 21
11.525
  0
LINE
  8
0
 10
10.8726
 20
11.525
 11
10.7552
 21
11.7205
  0
LINE
  8
0
 10
10.7552
 20
11.7205
 11
10.6556
 21
11.923
  0
LINE
  8
0
 10
10.6556
 20
11.923
 11
10.5737
 21
12.1314
  0
LINE
  8
0
 10
10.5737
 20
12.1314
 11
10.5098
 21
12.3444
  0
LINE
  8
0
 10
10.5098
 20
12.3444
 11
10.4639
 21
12.5609
  0
LINE
  8
0
 10
10.4639
 20
12.5609
 11
10.4361
 21
12.7796
  0
LINE
  8
0
 10
10.4361
 20
12.7796
 11
10.4265
 21
12.9994
  0
LINE
  8
0
 10
10.4265
 20
12.9994
 11
10.4352
 21
13.2189
  0
LINE
  8
0
 10
10.4352
 20
13.2189
 11
10.4624
 21
13.437
  0
LINE
  8
0
 10
10.4624
 20
13.437
 11
10.5082
 21
13.6525
  0
LINE
  8
0
 10
10.5082
 20
13.6525
 11
10.5725
 21
13.8642
  0
LINE
  8
0
 10
10.5725
 20
13.8642
 11
10.6557
 21
14.0708
  0
LINE
  8
0
 10
10.6557
 20
14.0708
 11
10.7576
 21
14.2712
  0
LINE
  8
0
 10
10.7576
 20
14.2712
 11
10.8785
 21
14.4641
  0
LINE
  8
0
 10
10.8785
 20
14.4641
 11
11.4067
 21
15.1268
  0
LINE
  8
0
 10
11.4067
 20
15.1268
 11
11.4736
 21
15.2454
  0
LINE
  8
0
 10
11.4736
 20
15.2454
 11
11.5172
 21
15.3716
  0
LINE
  8
0
 10
11.5172
 20
15.3716
 11
11.5377
 21
15.5023
  0
LINE
  8
0
 10
11.5377
 20
15.5023
 11
11.5355
 21
15.6345
  0
LINE
  8
0
 10
11.5355
 20
15.6345
 11
11.5109
 21
15.765
  0
LINE
  8
0
 10
11.5109
 20
15.765
 11
11.4642
 21
15.8908
  0
LINE
  8
0
 10
11.4642
 20
15.8908
 11
11.3956
 21
16.0088
  0
LINE
  8
0
 10
11.3956
 20
16.0088
 11
11.3524
 21
16.0602
  0
LINE
  8
0
 10
11.3524
 20
16.0602
 11
11.3524
 21
16.0603
  0
LINE
  8
0
 10
11.3524
 20
16.0603
 11
10.937
 21
16.3683
  0
LINE
  8
0
 10
10.937
 20
16.3683
 11
10.4934
 21
16.6342
  0
LINE
  8
0
 10
10.4934
 20
16.6342
 11
10.4752
 21
16.64
  0
LINE
  8
0
 10
10.4752
 20
16.64
 11
10.4752
 21
16.64
  0
LINE
  8
0
 10
10.4752
 20
16.64
 11
10.4293
 21
16.6545
  0
LINE
  8
0
 10
10.4293
 20
16.6545
 11
10.294
 21
16.6727
  0
LINE
  8
0
 10
10.294
 20
16.6727
 11
10.1598
 21
16.6677
  0
LINE
  8
0
 10
10.1598
 20
16.6677
 11
10.0298
 21
16.6405
  0
LINE
  8
0
 10
10.0298
 20
16.6405
 11
9.90684
 21
16.592
  0
LINE
  8
0
 10
9.90684
 20
16.592
 11
9.79396
 21
16.523
  0
LINE
  8
0
 10
9.79396
 20
16.523
 11
9.69409
 21
16.4344
  0
LINE
  8
0
 10
9.69409
 20
16.4344
 11
9.61023
 21
16.3272
  0
LINE
  8
0
 10
9.61023
 20
16.3272
 11
9.2
 21
15.5856
  0
LINE
  8
0
 10
9.2
 20
15.5856
 11
9.06822
 21
15.4
  0
LINE
  8
0
 10
9.06822
 20
15.4
 11
8.92224
 21
15.229
  0
LINE
  8
0
 10
8.92224
 20
15.229
 11
8.76323
 21
15.073
  0
LINE
  8
0
 10
8.76323
 20
15.073
 11
8.59236
 21
14.9325
  0
LINE
  8
0
 10
8.59236
 20
14.9325
 11
8.41078
 21
14.8077
  0
LINE
  8
0
 10
8.41078
 20
14.8077
 11
8.21966
 21
14.699
  0
LINE
  8
0
 10
8.21966
 20
14.699
 11
8.02016
 21
14.6069
  0
LINE
  8
0
 10
8.02016
 20
14.6069
 11
7.81344
 21
14.5317
  0
LINE
  8
0
 10
7.81344
 20
14.5317
 11
7.60069
 21
14.4737
  0
LINE
  8
0
 10
7.60069
 20
14.4737
 11
7.38303
 21
14.4333
  0
LINE
  8
0
 10
7.38303
 20
14.4333
 11
7.16166
 21
14.4109
  0
LINE
  8
0
 10
7.16166
 20
14.4109
 11
6.93773
 21
14.4068
  0
LINE
  8
0
 10
6.93773
 20
14.4068
 11
6.71238
 21
14.4215
  0
LINE
  8
0
 10
6.71238
 20
14.4215
 11
6.48683
 21
14.4552
  0
LINE
  8
0
 10
6.48683
 20
14.4552
 11
6.26218
 21
14.5084
  0
LINE
  8
0
 10
6.26218
 20
14.5084
 11
6.03965
 21
14.5815
  0
LINE
  8
0
 10
6.03965
 20
14.5815
 11
5.83081
 21
14.6872
  0
LINE
  8
0
 10
5.83081
 20
14.6872
 11
5.63451
 21
14.8085
  0
LINE
  8
0
 10
5.63451
 20
14.8085
 11
5.45129
 21
14.9442
  0
LINE
  8
0
 10
5.45129
 20
14.9442
 11
5.28171
 21
15.0931
  0
LINE
  8
0
 10
5.28171
 20
15.0931
 11
5.12636
 21
15.2543
  0
LINE
  8
0
 10
5.12636
 20
15.2543
 11
4.98576
 21
15.4267
  0
LINE
  8
0
 10
4.98576
 20
15.4267
 11
4.86049
 21
15.6091
  0
LINE
  8
0
 10
4.86049
 20
15.6091
 11
4.75111
 21
15.8006
  0
LINE
  8
0
 10
4.75111
 20
15.8006
 11
4.65819
 21
15.9999
  0
LINE
  8
0
 10
4.65819
 20
15.9999
 11
4.58226
 21
16.2061
  0
LINE
  8
0
 10
4.58226
 20
16.2061
 11
4.52392
 21
16.418
  0
LINE
  8
0
 10
4.52392
 20
16.418
 11
4.4837
 21
16.6346
  0
LINE
  8
0
 10
4.4837
 20
16.6346
 11
4.46216
 21
16.8548
  0
LINE
  8
0
 10
4.46216
 20
16.8548
 11
4.45989
 21
17.0775
  0
LINE
  8
0
 10
4.45989
 20
17.0775
 11
4.47741
 21
17.3016
  0
LINE
  8
0
 10
4.47741
 20
17.3016
 11
4.51531
 21
17.5261
  0
LINE
  8
0
 10
4.51531
 20
17.5261
 11
4.74959
 21
18.3405
  0
LINE
  8
0
 10
4.74959
 20
18.3405
 11
4.76604
 21
18.4757
  0
LINE
  8
0
 10
4.76604
 20
18.4757
 11
4.75801
 21
18.609
  0
LINE
  8
0
 10
4.75801
 20
18.609
 11
4.72699
 21
18.7376
  0
LINE
  8
0
 10
4.72699
 20
18.7376
 11
4.6744
 21
18.8588
  0
LINE
  8
0
 10
4.6744
 20
18.8588
 11
4.60171
 21
18.97
  0
LINE
  8
0
 10
4.60171
 20
18.97
 11
4.51039
 21
19.0683
  0
LINE
  8
0
 10
4.51039
 20
19.0683
 11
4.40188
 21
19.1511
  0
LINE
  8
0
 10
4.40188
 20
19.1511
 11
4.38498
 21
19.1599
  0
LINE
  8
0
 10
4.38498
 20
19.1599
 11
4.34227
 21
19.1821
  0
LINE
  8
0
 10
4.34227
 20
19.1821
 11
4.34223
 21
19.1821
  0
LINE
  8
0
 10
4.34223
 20
19.1821
 11
3.84055
 21
19.3078
  0
LINE
  8
0
 10
3.84055
 20
19.3078
 11
3.32898
 21
19.3837
  0
LINE
  8
0
 10
3.32898
 20
19.3837
 11
3.31
 21
19.3821
  0
LINE
  8
0
 10
3.31
 20
19.3821
 11
3.30996
 21
19.3821
  0
LINE
  8
0
 10
3.30996
 20
19.3821
 11
3.26199
 21
19.3779
  0
LINE
  8
0
 10
3.26199
 20
19.3779
 11
3.13003
 21
19.3429
  0
LINE
  8
0
 10
3.13003
 20
19.3429
 11
3.00797
 21
19.287
  0
LINE
  8
0
 10
3.00797
 20
19.287
 11
2.89825
 21
19.2121
  0
LINE
  8
0
 10
2.89825
 20
19.2121
 11
2.80324
 21
19.1202
  0
LINE
  8
0
 10
2.80324
 20
19.1202
 11
2.72536
 21
19.0133
  0
LINE
  8
0
 10
2.72536
 20
19.0133
 11
2.66698
 21
18.8932
  0
LINE
  8
0
 10
2.66698
 20
18.8932
 11
2.63056
 21
18.762
  0
LINE
  8
0
 10
2.63056
 20
18.762
 11
2.53534
 21
17.9199
  0
LINE
  8
0
 10
2.53534
 20
17.9199
 11
2.48464
 21
17.698
  0
LINE
  8
0
 10
2.48464
 20
17.698
 11
2.4152
 21
17.4841
  0
LINE
  8
0
 10
2.4152
 20
17.4841
 11
2.32798
 21
17.2792
  0
LINE
  8
0
 10
2.32798
 20
17.2792
 11
2.2239
 21
17.084
  0
LINE
  8
0
 10
2.2239
 20
17.084
 11
2.10389
 21
16.8992
  0
LINE
  8
0
 10
2.10389
 20
16.8992
 11
1.96889
 21
16.7257
  0
LINE
  8
0
 10
1.96889
 20
16.7257
 11
1.81984
 21
16.5642
  0
LINE
  8
0
 10
1.81984
 20
16.5642
 11
1.65765
 21
16.4156
  0
LINE
  8
0
 10
1.65765
 20
16.4156
 11
1.48329
 21
16.2806
  0
LINE
  8
0
 10
1.48329
 20
16.2806
 11
1.48048
 21
16.2788
  0
LINE
  8
0
 10
1.48048
 20
16.2788
 11
1.37982
 21
16.2134
  0
LINE
  8
0
 10
1.37982
 20
16.2134
 11
1.29766
 21
16.16
  0
LINE
  8
0
 10
1.29766
 20
16.16
 11
1.10171
 21
16.0546
  0
LINE
  8
0
 10
1.10171
 20
16.0546
 11
0.896378
 21
15.9651
  0
LINE
  8
0
 10
0.896378
 20
15.9651
 11
0.682571
 21
15.8924
  0
LINE
  8
0
 10
0.682571
 20
15.8924
 11
0.461267
 21
15.8373
  0
LINE
  8
0
 10
0.461267
 20
15.8373
 11
0.23336
 21
15.8005
  0
LINE
  8
0
 10
0.23336
 20
15.8005
 11
0.2189
 21
15.7994
  0
LINE
  8
0
 10
0.2189
 20
15.7994
 11
0.123086
 21
15.7921
  0
LINE
  8
0
 10
0.123086
 20
15.7921
 11
-0.000171661
 21
15.7828
  0
LINE
  8
0
 10
-0.000171661
 20
15.7828
 11
-0.233598
 21
15.8006
  0
LINE
  8
0
 10
-0.233598
 20
15.8006
 11
-0.461363
 21
15.8375
  0
LINE
  8
0
 10
-0.461363
 20
15.8375
 11
-0.682541
 21
15.8927
  0
LINE
  8
0
 10
-0.682541
 20
15.8927
 11
-0.896219
 21
15.9655
  0
LINE
  8
0
 10
-0.896219
 20
15.9655
 11
-1.10144
 21
16.0549
  0
LINE
  8
0
 10
-1.10144
 20
16.0549
 11
-1.18598
 21
16.1004
  0
LINE
  8
0
 10
-1.18598
 20
16.1004
 11
-1.2815
 21
16.1519
  0
LINE
  8
0
 10
-1.2815
 20
16.1519
 11
-1.29729
 21
16.1604
  0
LINE
  8
0
 10
-1.29729
 20
16.1604
 11
-1.37934
 21
16.2137
  0
LINE
  8
0
 10
-1.37934
 20
16.2137
 11
-1.48048
 21
16.2795
  0
LINE
  8
0
 10
-1.48048
 20
16.2795
 11
-1.48285
 21
16.281
  0
LINE
  8
0
 10
-1.48285
 20
16.281
 11
-1.65716
 21
16.416
  0
LINE
  8
0
 10
-1.65716
 20
16.416
 11
-1.81929
 21
16.5646
  0
LINE
  8
0
 10
-1.81929
 20
16.5646
 11
-1.96834
 21
16.726
  0
LINE
  8
0
 10
-1.96834
 20
16.726
 11
-2.10334
 21
16.8995
  0
LINE
  8
0
 10
-2.10334
 20
16.8995
 11
-2.22338
 21
17.0842
  0
LINE
  8
0
 10
-2.22338
 20
17.0842
 11
-2.32755
 21
17.2794
  0
LINE
  8
0
 10
-2.32755
 20
17.2794
 11
-2.41487
 21
17.4843
  0
LINE
  8
0
 10
-2.41487
 20
17.4843
 11
-2.48445
 21
17.698
  0
LINE
  8
0
 10
-2.48445
 20
17.698
 11
-2.53534
 21
17.9199
  0
LINE
  8
0
 10
-2.53534
 20
17.9199
 11
-2.63056
 21
18.762
  0
LINE
  8
0
 10
-2.63056
 20
18.762
 11
-2.66709
 21
18.8932
  0
LINE
  8
0
 10
-2.66709
 20
18.8932
 11
-2.72551
 21
19.0133
  0
LINE
  8
0
 10
-2.72551
 20
19.0133
 11
-2.80339
 21
19.1202
  0
LINE
  8
0
 10
-2.80339
 20
19.1202
 11
-2.89838
 21
19.2121
  0
LINE
  8
0
 10
-2.89838
 20
19.2121
 11
-3.00807
 21
19.287
  0
LINE
  8
0
 10
-3.00807
 20
19.287
 11
-3.13008
 21
19.3429
  0
LINE
  8
0
 10
-3.13008
 20
19.3429
 11
-3.26201
 21
19.3779
  0
LINE
  8
0
 10
-3.26201
 20
19.3779
 11
-3.28098
 21
19.3795
  0
LINE
  8
0
 10
-3.28098
 20
19.3795
 11
-3.32894
 21
19.3837
  0
LINE
  8
0
 10
-3.32894
 20
19.3837
 11
-3.32898
 21
19.3837
  0
LINE
  8
0
 10
-3.32898
 20
19.3837
 11
-3.84055
 21
19.3078
  0
LINE
  8
0
 10
-3.84055
 20
19.3078
 11
-4.34223
 21
19.1821
  0
LINE
  8
0
 10
-4.34223
 20
19.1821
 11
-4.35914
 21
19.1733
  0
LINE
  8
0
 10
-4.35914
 20
19.1733
 11
-4.35917
 21
19.1733
  0
LINE
  8
0
 10
-4.35917
 20
19.1733
 11
-4.4019
 21
19.1511
  0
LINE
  8
0
 10
-4.4019
 20
19.1511
 11
-4.51043
 21
19.0683
  0
LINE
  8
0
 10
-4.51043
 20
19.0683
 11
-4.6018
 21
18.9699
  0
LINE
  8
0
 10
-4.6018
 20
18.9699
 11
-4.67451
 21
18.8588
  0
LINE
  8
0
 10
-4.67451
 20
18.8588
 11
-4.72713
 21
18.7375
  0
LINE
  8
0
 10
-4.72713
 20
18.7375
 11
-4.75816
 21
18.6089
  0
LINE
  8
0
 10
-4.75816
 20
18.6089
 11
-4.76614
 21
18.4757
  0
LINE
  8
0
 10
-4.76614
 20
18.4757
 11
-4.74959
 21
18.3405
  0
LINE
  8
0
 10
-4.74959
 20
18.3405
 11
-4.51531
 21
17.5261
  0
LINE
  8
0
 10
-4.51531
 20
17.5261
 11
-4.47721
 21
17.3016
  0
LINE
  8
0
 10
-4.47721
 20
17.3016
 11
-4.45954
 21
17.0775
  0
LINE
  8
0
 10
-4.45954
 20
17.0775
 11
-4.46169
 21
16.8548
  0
LINE
  8
0
 10
-4.46169
 20
16.8548
 11
-4.48313
 21
16.6346
  0
LINE
  8
0
 10
-4.48313
 20
16.6346
 11
-4.5233
 21
16.4179
  0
LINE
  8
0
 10
-4.5233
 20
16.4179
 11
-4.58162
 21
16.206
  0
LINE
  8
0
 10
-4.58162
 20
16.206
 11
-4.65753
 21
15.9998
  0
LINE
  8
0
 10
-4.65753
 20
15.9998
 11
-4.7505
 21
15.8004
  0
LINE
  8
0
 10
-4.7505
 20
15.8004
 11
-4.85993
 21
15.6089
  0
LINE
  8
0
 10
-4.85993
 20
15.6089
 11
-4.98528
 21
15.4265
  0
LINE
  8
0
 10
-4.98528
 20
15.4265
 11
-5.12596
 21
15.2541
  0
LINE
  8
0
 10
-5.12596
 20
15.2541
 11
-5.28144
 21
15.0929
  0
LINE
  8
0
 10
-5.28144
 20
15.0929
 11
-5.45115
 21
14.9439
  0
LINE
  8
0
 10
-5.45115
 20
14.9439
 11
-5.63451
 21
14.8083
  0
LINE
  8
0
 10
-5.63451
 20
14.8083
 11
-5.83099
 21
14.6871
  0
LINE
  8
0
 10
-5.83099
 20
14.6871
 11
-6.03997
 21
14.5813
  0
LINE
  8
0
 10
-6.03997
 20
14.5813
 11
-6.26244
 21
14.5085
  0
LINE
  8
0
 10
-6.26244
 20
14.5085
 11
-6.487
 21
14.4554
  0
LINE
  8
0
 10
-6.487
 20
14.4554
 11
-6.71246
 21
14.4218
  0
LINE
  8
0
 10
-6.71246
 20
14.4218
 11
-6.93771
 21
14.4072
  0
LINE
  8
0
 10
-6.93771
 20
14.4072
 11
-7.16156
 21
14.4113
  0
LINE
  8
0
 10
-7.16156
 20
14.4113
 11
-7.38285
 21
14.4338
  0
LINE
  8
0
 10
-7.38285
 20
14.4338
 11
-7.60044
 21
14.4742
  0
LINE
  8
0
 10
-7.60044
 20
14.4742
 11
-7.81314
 21
14.5322
  0
LINE
  8
0
 10
-7.81314
 20
14.5322
 11
-8.0198
 21
14.6075
  0
LINE
  8
0
 10
-8.0198
 20
14.6075
 11
-8.21928
 21
14.6996
  0
LINE
  8
0
 10
-8.21928
 20
14.6996
 11
-8.41038
 21
14.8082
  0
LINE
  8
0
 10
-8.41038
 20
14.8082
 11
-8.59198
 21
14.9329
  0
LINE
  8
0
 10
-8.59198
 20
14.9329
 11
-8.76291
 21
15.0734
  0
LINE
  8
0
 10
-8.76291
 20
15.0734
 11
-8.92198
 21
15.2292
  0
LINE
  8
0
 10
-8.92198
 20
15.2292
 11
-9.06807
 21
15.4001
  0
LINE
  8
0
 10
-9.06807
 20
15.4001
 11
-9.2
 21
15.5856
  0
LINE
  8
0
 10
-9.2
 20
15.5856
 11
-9.61023
 21
16.3272
  0
LINE
  8
0
 10
-9.61023
 20
16.3272
 11
-9.69419
 21
16.4344
  0
LINE
  8
0
 10
-9.69419
 20
16.4344
 11
-9.7941
 21
16.523
  0
LINE
  8
0
 10
-9.7941
 20
16.523
 11
-9.90699
 21
16.592
  0
LINE
  8
0
 10
-9.90699
 20
16.592
 11
-10.0299
 21
16.6405
  0
LINE
  8
0
 10
-10.0299
 20
16.6405
 11
-10.1599
 21
16.6677
  0
LINE
  8
0
 10
-10.1599
 20
16.6677
 11
-10.294
 21
16.6727
  0
LINE
  8
0
 10
-10.294
 20
16.6727
 11
-10.4293
 21
16.6545
  0
LINE
  8
0
 10
-10.4293
 20
16.6545
 11
-10.4475
 21
16.6487
  0
LINE
  8
0
 10
-10.4475
 20
16.6487
 11
-10.4933
 21
16.6342
  0
LINE
  8
0
 10
-10.4933
 20
16.6342
 11
-10.4934
 21
16.6342
  0
LINE
  8
0
 10
-10.4934
 20
16.6342
 11
-10.937
 21
16.3683
  0
LINE
  8
0
 10
-10.937
 20
16.3683
 11
-11.3524
 21
16.0603
  0
LINE
  8
0
 10
-11.3524
 20
16.0603
 11
-11.3524
 21
16.0602
  0
LINE
  8
0
 10
-11.3524
 20
16.0602
 11
-11.3956
 21
16.0088
  0
LINE
  8
0
 10
-11.3956
 20
16.0088
 11
-11.4642
 21
15.8907
  0
LINE
  8
0
 10
-11.4642
 20
15.8907
 11
-11.511
 21
15.7649
  0
LINE
  8
0
 10
-11.511
 20
15.7649
 11
-11.5356
 21
15.6344
  0
LINE
  8
0
 10
-11.5356
 20
15.6344
 11
-11.5378
 21
15.5022
  0
LINE
  8
0
 10
-11.5378
 20
15.5022
 11
-11.5173
 21
15.3715
  0
LINE
  8
0
 10
-11.5173
 20
15.3715
 11
-11.4737
 21
15.2454
  0
LINE
  8
0
 10
-11.4737
 20
15.2454
 11
-11.4067
 21
15.1268
  0
LINE
  8
0
 10
-11.4067
 20
15.1268
 11
-10.8785
 21
14.4641
  0
LINE
  8
0
 10
-10.8785
 20
14.4641
 11
-10.7574
 21
14.2713
  0
LINE
  8
0
 10
-10.7574
 20
14.2713
 11
-10.6553
 21
14.0709
  0
LINE
  8
0
 10
-10.6553
 20
14.0709
 11
-10.5721
 21
13.8644
  0
LINE
  8
0
 10
-10.5721
 20
13.8644
 11
-10.5076
 21
13.6527
  0
LINE
  8
0
 10
-10.5076
 20
13.6527
 11
-10.4619
 21
13.4372
  0
LINE
  8
0
 10
-10.4619
 20
13.4372
 11
-10.4346
 21
13.2191
  0
LINE
  8
0
 10
-10.4346
 20
13.2191
 11
-10.4258
 21
12.9995
  0
LINE
  8
0
 10
-10.4258
 20
12.9995
 11
-10.4354
 21
12.7797
  0
LINE
  8
0
 10
-10.4354
 20
12.7797
 11
-10.4633
 21
12.561
  0
LINE
  8
0
 10
-10.4633
 20
12.561
 11
-10.5092
 21
12.3444
  0
LINE
  8
0
 10
-10.5092
 20
12.3444
 11
-10.5733
 21
12.1313
  0
LINE
  8
0
 10
-10.5733
 20
12.1313
 11
-10.6552
 21
11.9229
  0
LINE
  8
0
 10
-10.6552
 20
11.9229
 11
-10.755
 21
11.7203
  0
LINE
  8
0
 10
-10.755
 20
11.7203
 11
-10.8725
 21
11.5248
  0
LINE
  8
0
 10
-10.8725
 20
11.5248
 11
-11.0076
 21
11.3376
  0
LINE
  8
0
 10
-11.0076
 20
11.3376
 11
-11.1602
 21
11.16
  0
LINE
  8
0
 10
-11.1602
 20
11.16
 11
-11.3379
 21
11.0075
  0
LINE
  8
0
 10
-11.3379
 20
11.0075
 11
-11.525
 21
10.8726
  0
LINE
  8
0
 10
-11.525
 20
10.8726
 11
-11.7205
 21
10.7552
  0
LINE
  8
0
 10
-11.7205
 20
10.7552
 11
-11.923
 21
10.6556
  0
LINE
  8
0
 10
-11.923
 20
10.6556
 11
-12.1314
 21
10.5737
  0
LINE
  8
0
 10
-12.1314
 20
10.5737
 11
-12.3444
 21
10.5098
  0
LINE
  8
0
 10
-12.3444
 20
10.5098
 11
-12.5609
 21
10.4639
  0
LINE
  8
0
 10
-12.5609
 20
10.4639
 11
-12.7796
 21
10.4361
  0
LINE
  8
0
 10
-12.7796
 20
10.4361
 11
-12.9994
 21
10.4265
  0
LINE
  8
0
 10
-12.9994
 20
10.4265
 11
-13.2189
 21
10.4352
  0
LINE
  8
0
 10
-13.2189
 20
10.4352
 11
-13.437
 21
10.4624
  0
LINE
  8
0
 10
-13.437
 20
10.4624
 11
-13.6525
 21
10.5082
  0
LINE
  8
0
 10
-13.6525
 20
10.5082
 11
-13.8642
 21
10.5725
  0
LINE
  8
0
 10
-13.8642
 20
10.5725
 11
-14.0708
 21
10.6557
  0
LINE
  8
0
 10
-14.0708
 20
10.6557
 11
-14.2712
 21
10.7576
  0
LINE
  8
0
 10
-14.2712
 20
10.7576
 11
-14.4641
 21
10.8785
  0
LINE
  8
0
 10
-14.4641
 20
10.8785
 11
-15.1268
 21
11.4067
  0
LINE
  8
0
 10
-15.1268
 20
11.4067
 11
-15.2454
 21
11.4736
  0
LINE
  8
0
 10
-15.2454
 20
11.4736
 11
-15.3716
 21
11.5172
  0
LINE
  8
0
 10
-15.3716
 20
11.5172
 11
-15.5023
 21
11.5377
  0
LINE
  8
0
 10
-15.5023
 20
11.5377
 11
-15.6345
 21
11.5355
  0
LINE
  8
0
 10
-15.6345
 20
11.5355
 11
-15.765
 21
11.5109
  0
LINE
  8
0
 10
-15.765
 20
11.5109
 11
-15.8908
 21
11.4642
  0
LINE
  8
0
 10
-15.8908
 20
11.4642
 11
-16.0088
 21
11.3956
  0
LINE
  8
0
 10
-16.0088
 20
11.3956
 11
-16.0234
 21
11.3834
  0
LINE
  8
0
 10
-16.0234
 20
11.3834
 11
-16.0602
 21
11.3524
  0
LINE
  8
0
 10
-16.0602
 20
11.3524
 11
-16.0603
 21
11.3524
  0
LINE
  8
0
 10
-16.0603
 20
11.3524
 11
-16.3683
 21
10.937
  0
LINE
  8
0
 10
-16.3683
 20
10.937
 11
-16.6342
 21
10.4934
  0
LINE
  8
0
 10
-16.6342
 20
10.4934
 11
-16.6342
 21
10.4933
  0
LINE
  8
0
 10
-16.6342
 20
10.4933
 11
-16.6545
 21
10.4293
  0
LINE
  8
0
 10
-16.6545
 20
10.4293
 11
-16.6727
 21
10.294
  0
LINE
  8
0
 10
-16.6727
 20
10.294
 11
-16.6677
 21
10.1598
  0
LINE
  8
0
 10
-16.6677
 20
10.1598
 11
-16.6405
 21
10.0298
  0
LINE
  8
0
 10
-16.6405
 20
10.0298
 11
-16.592
 21
9.90684
  0
LINE
  8
0
 10
-16.592
 20
9.90684
 11
-16.523
 21
9.79396
  0
LINE
  8
0
 10
-16.523
 20
9.79396
 11
-16.4344
 21
9.69409
  0
LINE
  8
0
 10
-16.4344
 20
9.69409
 11
-16.3272
 21
9.61023
  0
LINE
  8
0
 10
-16.3272
 20
9.61023
 11
-15.5856
 21
9.2
  0
LINE
  8
0
 10
-15.5856
 20
9.2
 11
-15.4
 21
9.06822
  0
LINE
  8
0
 10
-15.4
 20
9.06822
 11
-15.229
 21
8.92224
  0
LINE
  8
0
 10
-15.229
 20
8.92224
 11
-15.073
 21
8.76323
  0
LINE
  8
0
 10
-15.073
 20
8.76323
 11
-14.9325
 21
8.59236
  0
LINE
  8
0
 10
-14.9325
 20
8.59236
 11
-14.8077
 21
8.41078
  0
LINE
  8
0
 10
-14.8077
 20
8.41078
 11
-14.699
 21
8.21966
  0
LINE
  8
0
 10
-14.699
 20
8.21966
 11
-14.6069
 21
8.02016
  0
LINE
  8
0
 10
-14.6069
 20
8.02016
 11
-14.5317
 21
7.81344
  0
LINE
  8
0
 10
-14.5317
 20
7.81344
 11
-14.4737
 21
7.60069
  0
LINE
  8
0
 10
-14.4737
 20
7.60069
 11
-14.4333
 21
7.38303
  0
LINE
  8
0
 10
-14.4333
 20
7.38303
 11
-14.4109
 21
7.16166
  0
LINE
  8
0
 10
-14.4109
 20
7.16166
 11
-14.4068
 21
6.93773
  0
LINE
  8
0
 10
-14.4068
 20
6.93773
 11
-14.4215
 21
6.71238
  0
LINE
  8
0
 10
-14.4215
 20
6.71238
 11
-14.4552
 21
6.48683
  0
LINE
  8
0
 10
-14.4552
 20
6.48683
 11
-14.5084
 21
6.26218
  0
LINE
  8
0
 10
-14.5084
 20
6.26218
 11
-14.5815
 21
6.03965
  0
LINE
  8
0
 10
-14.5815
 20
6.03965
 11
-14.6872
 21
5.83081
  0
LINE
  8
0
 10
-14.6872
 20
5.83081
 11
-14.8085
 21
5.63451
  0
LINE
  8
0
 10
-14.8085
 20
5.63451
 11
-14.9442
 21
5.45129
  0
LINE
  8
0
 10
-14.9442
 20
5.45129
 11
-15.0931
 21
5.28171
  0
LINE
  8
0
 10
-15.0931
 20
5.28171
 11
-15.2543
 21
5.12636
  0
LINE
  8
0
 10
-15.2543
 20
5.12636
 11
-15.4267
 21
4.98576
  0
LINE
  8
0
 10
-15.4267
 20
4.98576
 11
-15.6091
 21
4.86049
  0
LINE
  8
0
 10
-15.6091
 20
4.86049
 11
-15.8006
 21
4.75111
  0
LINE
  8
0
 10
-15.8006
 20
4.75111
 11
-15.9999
 21
4.65819
  0
LINE
  8
0
 10
-15.9999
 20
4.65819
 11
-16.2061
 21
4.58226
  0
LINE
  8
0
 10
-16.2061
 20
4.58226
 11
-16.418
 21
4.52392
  0
LINE
  8
0
 10
-16.418
 20
4.52392
 11
-16.6346
 21
4.4837
  0
LINE
  8
0
 10
-16.6346
 20
4.4837
 11
-16.8548
 21
4.46216
  0
LINE
  8
0
 10
-16.8548
 20
4.46216
 11
-17.0775
 21
4.45989
  0
LINE
  8
0
 10
-17.0775
 20
4.45989
 11
-17.3016
 21
4.47741
  0
LINE
  8
0
 10
-17.3016
 20
4.47741
 11
-17.5261
 21
4.51531
  0
LINE
  8
0
 10
-17.5261
 20
4.51531
 11
-18.3405
 21
4.74959
  0
LINE
  8
0
 10
-18.3405
 20
4.74959
 11
-18.4757
 21
4.76604
  0
LINE
  8
0
 10
-18.4757
 20
4.76604
 11
-18.609
 21
4.75801
  0
LINE
  8
0
 10
-18.609
 20
4.75801
 11
-18.7376
 21
4.72699
  0
LINE
  8
0
 10
-18.7376
 20
4.72699
 11
-18.8588
 21
4.6744
  0
LINE
  8
0
 10
-18.8588
 20
4.6744
 11
-18.97
 21
4.60171
  0
LINE
  8
0
 10
-18.97
 20
4.60171
 11
-19.0683
 21
4.51039
  0
LINE
  8
0
 10
-19.0683
 20
4.51039
 11
-19.1511
 21
4.40188
  0
LINE
  8
0
 10
-19.1511
 20
4.40188
 11
-19.1821
 21
4.34228
  0
LINE
  8
0
 10
-19.1821
 20
4.34228
 11
-19.1821
 21
4.34223
  0
LINE
  8
0
 10
-19.1821
 20
4.34223
 11
-19.3078
 21
3.84055
  0
LINE
  8
0
 10
-19.3078
 20
3.84055
 11
-19.3837
 21
3.32898
  0
LINE
  8
0
 10
-19.3837
 20
3.32898
 11
-19.3837
 21
3.32892
  0
LINE
  8
0
 10
-19.3837
 20
3.32892
 11
-19.3779
 21
3.26199
  0
LINE
  8
0
 10
-19.3779
 20
3.26199
 11
-19.3429
 21
3.13003
  0
LINE
  8
0
 10
-19.3429
 20
3.13003
 11
-19.287
 21
3.00797
  0
LINE
  8
0
 10
-19.287
 20
3.00797
 11
-19.2121
 21
2.89825
  0
LINE
  8
0
 10
-19.2121
 20
2.89825
 11
-19.1202
 21
2.80324
  0
LINE
  8
0
 10
-19.1202
 20
2.80324
 11
-19.0133
 21
2.72536
  0
LINE
  8
0
 10
-19.0133
 20
2.72536
 11
-18.8932
 21
2.66698
  0
LINE
  8
0
 10
-18.8932
 20
2.66698
 11
-18.762
 21
2.63056
  0
LINE
  8
0
 10
-18.762
 20
2.63056
 11
-17.9199
 21
2.53534
  0
LINE
  8
0
 10
-17.9199
 20
2.53534
 11
-17.698
 21
2.48464
  0
LINE
  8
0
 10
-17.698
 20
2.48464
 11
-17.4841
 21
2.4152
  0
LINE
  8
0
 10
-17.4841
 20
2.4152
 11
-17.2792
 21
2.32798
  0
LINE
  8
0
 10
-17.2792
 20
2.32798
 11
-17.084
 21
2.2239
  0
LINE
  8
0
 10
-17.084
 20
2.2239
 11
-16.8992
 21
2.10389
  0
LINE
  8
0
 10
-16.8992
 20
2.10389
 11
-16.7257
 21
1.96889
  0
LINE
  8
0
 10
-16.7257
 20
1.96889
 11
-16.5642
 21
1.81984
  0
LINE
  8
0
 10
-16.5642
 20
1.81984
 11
-16.4156
 21
1.65765
  0
LINE
  8
0
 10
-16.4156
 20
1.65765
 11
-16.2806
 21
1.48329
  0
LINE
  8
0
 10
-16.2806
 20
1.48329
 11
-16.2788
 21
1.48048
  0
LINE
  8
0
 10
-16.2788
 20
1.48048
 11
-16.2134
 21
1.37982
  0
LINE
  8
0
 10
-16.2134
 20
1.37982
 11
-16.16
 21
1.29766
  0
LINE
  8
0
 10
-16.16
 20
1.29766
 11
-16.0546
 21
1.10171
  0
LINE
  8
0
 10
-16.0546
 20
1.10171
 11
-15.9651
 21
0.896378
  0
LINE
  8
0
 10
-15.9651
 20
0.896378
 11
-15.8924
 21
0.682571
  0
LINE
  8
0
 10
-15.8924
 20
0.682571
 11
-15.8373
 21
0.461267
  0
LINE
  8
0
 10
-15.8373
 20
0.461267
 11
-15.8005
 21
0.23336
  0
LINE
  8
0
 10
-15.8005
 20
0.23336
 11
-15.7994
 21
0.2189
  0
LINE
  8
0
 10
-15.7994
 20
0.2189
 11
-15.7921
 21
0.123086
  0
LINE
  8
0
 10
-15.7921
 20
0.123086
 11
-15.7828
 21
-0.000171661
  0
LINE
  8
0
 10
-15.7828
 20
-0.000171661
 11
-15.8006
 21
-0.233598
  0
LINE
  8
0
 10
-15.8006
 20
-0.233598
 11
-15.8375
 21
-0.461363
  0
LINE
  8
0
 10
-15.8375
 20
-0.461363
 11
-15.8927
 21
-0.682541
  0
LINE
  8
0
 10
-15.8927
 20
-0.682541
 11
-15.9655
 21
-0.896219
  0
LINE
  8
0
 10
-15.9655
 20
-0.896219
 11
-16.0549
 21
-1.10144
  0
LINE
  8
0
 10
-16.0549
 20
-1.10144
 11
-16.1004
 21
-1.18598
  0
LINE
  8
0
 10
-16.1004
 20
-1.18598
 11
-16.1519
 21
-1.2815
  0
LINE
  8
0
 10
-16.1519
 20
-1.2815
 11
-16.1604
 21
-1.29729
  0
LINE
  8
0
 10
-16.1604
 20
-1.29729
 11
-16.2137
 21
-1.37934
  0
LINE
  8
0
 10
-16.2137
 20
-1.37934
 11
-16.2795
 21
-1.48048
  0
LINE
  8
0
 10
-16.2795
 20
-1.48048
 11
-16.281
 21
-1.48285
  0
LINE
  8
0
 10
-16.281
 20
-1.48285
 11
-16.416
 21
-1.65716
  0
LINE
  8
0
 10
-16.416
 20
-1.65716
 11
-16.5646
 21
-1.81929
  0
LINE
  8
0
 10
-16.5646
 20
-1.81929
 11
-16.726
 21
-1.96834
  0
LINE
  8
0
 10
-16.726
 20
-1.96834
 11
-16.8995
 21
-2.10334
  0
LINE
  8
0
 10
-16.8995
 20
-2.10334
 11
-17.0842
 21
-2.22338
  0
LINE
  8
0
 10
-17.0842
 20
-2.22338
 11
-17.2794
 21
-2.32755
  0
LINE
  8
0
 10
-17.2794
 20
-2.32755
 11
-17.4843
 21
-2.41487
  0
LINE
  8
0
 10
-17.4843
 20
-2.41487
 11
-17.698
 21
-2.48445
  0
LINE
  8
0
 10
-17.698
 20
-2.48445
 11
-17.9199
 21
-2.53534
  0
LINE
  8
0
 10
-17.9199
 20
-2.53534
 11
-18.762
 21
-2.63056
  0
LINE
  8
0
 10
-18.762
 20
-2.63056
 11
-18.8932
 21
-2.66709
  0
LINE
  8
0
 10
-18.8932
 20
-2.66709
 11
-19.0133
 21
-2.72551
  0
LINE
  8
0
 10
-19.0133
 20
-2.72551
 11
-19.1202
 21
-2.80339
  0
LINE
  8
0
 10
-19.1202
 20
-2.80339
 11
-19.2121
 21
-2.89838
  0
LINE
  8
0
 10
-19.2121
 20
-2.89838
 11
-19.287
 21
-3.00807
  0
LINE
  8
0
 10
-19.287
 20
-3.00807
 11
-19.3429
 21
-3.13008
  0
LINE
  8
0
 10
-19.3429
 20
-3.13008
 11
-19.3779
 21
-3.26201
  0
LINE
  8
0
 10
-19.3779
 20
-3.26201
 11
-19.3837
 21
-3.32892
  0
LINE
  8
0
 10
-19.3837
 20
-3.32892
 11
-19.3837
 21
-3.32898
  0
LINE
  8
0
 10
-3.05
 20
0
 11
-3.03621
 21
0.131233
  0
LINE
  8
0
 10
-3.03621
 20
0.131233
 11
-3.01144
 21
0.366882
  0
LINE
  8
0
 10
-3.01144
 20
0.366882
 11
-2.98335
 21
0.63413
  0
LINE
  8
0
 10
-2.98335
 20
0.63413
 11
-2.78631
 21
1.24055
  0
LINE
  8
0
 10
-2.78631
 20
1.24055
 11
-2.65834
 21
1.46219
  0
LINE
  8
0
 10
-2.65834
 20
1.46219
 11
-2.57503
 21
1.60649
  0
LINE
  8
0
 10
-2.57503
 20
1.60649
 11
-2.4675
 21
1.79274
  0
LINE
  8
0
 10
-2.4675
 20
1.79274
 11
-2.04085
 21
2.26659
  0
LINE
  8
0
 10
-2.04085
 20
2.26659
 11
-1.525
 21
2.64138
  0
LINE
  8
0
 10
-1.525
 20
2.64138
 11
-1.49917
 21
2.65288
  0
LINE
  8
0
 10
-1.49917
 20
2.65288
 11
-1.37032
 21
2.71025
  0
LINE
  8
0
 10
-1.37032
 20
2.71025
 11
-1.16961
 21
2.7996
  0
LINE
  8
0
 10
-1.16961
 20
2.7996
 11
-0.9425
 21
2.90072
  0
LINE
  8
0
 10
-0.9425
 20
2.90072
 11
-0.31881
 21
3.03329
  0
LINE
  8
0
 10
-0.31881
 20
3.03329
 11
0.31881
 21
3.03329
  0
LINE
  8
0
 10
0.31881
 20
3.03329
 11
0.9425
 21
2.90072
  0
LINE
  8
0
 10
0.9425
 20
2.90072
 11
1.17147
 21
2.79878
  0
LINE
  8
0
 10
1.17147
 20
2.79878
 11
1.49729
 21
2.65371
  0
LINE
  8
0
 10
1.49729
 20
2.65371
 11
1.525
 21
2.64138
  0
LINE
  8
0
 10
1.525
 20
2.64138
 11
2.04085
 21
2.26659
  0
LINE
  8
0
 10
2.04085
 20
2.26659
 11
2.4675
 21
1.79274
  0
LINE
  8
0
 10
2.4675
 20
1.79274
 11
2.78631
 21
1.24055
  0
LINE
  8
0
 10
2.78631
 20
1.24055
 11
2.98335
 21
0.63413
  0
LINE
  8
0
 10
2.98335
 20
0.63413
 11
3.05
 21
0
  0
LINE
  8
0
 10
3.05
 20
0
 11
2.98335
 21
-0.63413
  0
LINE
  8
0
 10
2.98335
 20
-0.63413
 11
2.78631
 21
-1.24055
  0
LINE
  8
0
 10
2.78631
 20
-1.24055
 11
2.4675
 21
-1.79274
  0
LINE
  8
0
 10
2.4675
 20
-1.79274
 11
2.04085
 21
-2.26659
  0
LINE
  8
0
 10
2.04085
 20
-2.26659
 11
1.525
 21
-2.64138
  0
LINE
  8
0
 10
1.525
 20
-2.64138
 11
0.9425
 21
-2.90072
  0
LINE
  8
0
 10
0.9425
 20
-2.90072
 11
0.31881
 21
-3.03329
  0
LINE
  8
0
 10
0.31881
 20
-3.03329
 11
-0.31881
 21
-3.03329
  0
LINE
  8
0
 10
-0.31881
 20
-3.03329
 11
-0.9425
 21
-2.90072
  0
LINE
  8
0
 10
-0.9425
 20
-2.90072
 11
-1.525
 21
-2.64138
  0
LINE
  8
0
 10
-1.525
 20
-2.64138
 11
-2.04085
 21
-2.26659
  0
LINE
  8
0
 10
-2.04085
 20
-2.26659
 11
-2.4675
 21
-1.79274
  0
LINE
  8
0
 10
-2.4675
 20
-1.79274
 11
-2.56776
 21
-1.61908
  0
LINE
  8
0
 10
-2.56776
 20
-1.61908
 11
-2.65034
 21
-1.47604
  0
LINE
  8
0
 10
-2.65034
 20
-1.47604
 11
-2.66055
 21
-1.45836
  0
LINE
  8
0
 10
-2.66055
 20
-1.45836
 11
-2.78631
 21
-1.24055
  0
LINE
  8
0
 10
-2.78631
 20
-1.24055
 11
-2.98335
 21
-0.63413
  0
LINE
  8
0
 10
-2.98335
 20
-0.63413
 11
-3.05
 21
0
  0
ENDSEC
  0
SECTION
  2
OBJECTS
  0
DICTIONARY
  0
ENDSEC
  0
EOF
